<?xml version="1.0" encoding="UTF-8"?>
<svg version="1.1" xmlns="http://www.w3.org/2000/svg" width="465" height="323">
<path d="M0 0 C1.2684375 -0.01224609 2.536875 -0.02449219 3.84375 -0.03710938 C12.48726715 -0.05033925 20.73117318 0.76150452 29.25 2.1875 C30.55195313 2.37570313 31.85390625 2.56390625 33.1953125 2.7578125 C54.04133674 6.39434253 72.63977156 15.87372926 87.25 31.1875 C88.58984375 33.51953125 88.58984375 33.51953125 89.25 35.1875 C89.91 35.1875 90.57 35.1875 91.25 35.1875 C92.93541013 37.81431038 94.47438558 40.48088175 95.9765625 43.21484375 C98.45988727 47.49809772 101.09316344 49.59838466 105.25 52.1875 C105.25 52.8475 105.25 53.5075 105.25 54.1875 C106.39275391 53.59001953 106.39275391 53.59001953 107.55859375 52.98046875 C125.58654997 43.73016912 146.91184291 40.33250776 166.8046875 46.078125 C168.51011719 46.62726562 168.51011719 46.62726562 170.25 47.1875 C172.04359237 47.70548008 173.83793939 48.22085041 175.6328125 48.734375 C177.61027535 49.31988441 179.58683528 49.90845158 181.5625 50.5 C182.49473389 50.77142822 183.42696777 51.04285645 184.38745117 51.32250977 C190.68225475 53.29298343 195.24264953 55.9282766 200.25 60.1875 C200.87656494 60.69611572 201.50312988 61.20473145 202.14868164 61.72875977 C203.99440927 63.23413705 205.81192428 64.76802809 207.625 66.3125 C208.23988281 66.82425781 208.85476563 67.33601563 209.48828125 67.86328125 C212.56071777 70.47854998 214.55602398 72.47444145 216.25 76.1875 C217.24 76.5175 218.23 76.8475 219.25 77.1875 C219.9375 79.25 219.9375 79.25 220.25 81.1875 C220.91 81.1875 221.57 81.1875 222.25 81.1875 C223.55604787 83.49282636 224.84452121 85.80551679 226.125 88.125 C226.48980469 88.76501953 226.85460937 89.40503906 227.23046875 90.06445312 C231.90077852 98.59838279 232.54880619 106.64386554 232.375 116.25 C232.36597656 117.21099609 232.35695313 118.17199219 232.34765625 119.16210938 C232.32435208 121.50417805 232.29164058 123.84569792 232.25 126.1875 C230.765 126.6825 230.765 126.6825 229.25 127.1875 C229.683125 128.7034375 229.683125 128.7034375 230.125 130.25 C231.77796325 136.77920484 232.43302099 143.51260768 233.25 150.1875 C228.45376776 151.40481783 226.58046872 150.58307844 222.25 148.1875 C219.96801414 147.36433877 218.77638601 147.01127512 216.453125 147.7890625 C215.48632812 148.29566406 215.48632812 148.29566406 214.5 148.8125 C207.68508934 152.04819742 200.4595775 154.0329313 193.25 156.1875 C192.074375 156.53965576 192.074375 156.53965576 190.875 156.89892578 C187.55934047 157.89189673 184.24345865 158.88412167 180.92724609 159.87524414 C174.79383504 161.71266203 168.67279284 163.58708647 162.5625 165.5 C161.33213013 165.88176392 161.33213013 165.88176392 160.0769043 166.27124023 C156.3727664 167.19572069 156.3727664 167.19572069 153.25 169.1875 C153.58156198 170.85451996 153.91536231 172.52109474 154.25 174.1875 C155.36219899 192.51739491 150.47079328 206.7240004 139.25 221.1875 C137.6537675 222.98111609 136.02463799 224.56074851 134.25 226.1875 C133.693125 226.785625 133.13625 227.38375 132.5625 228 C131.25 229.1875 131.25 229.1875 129.25 229.1875 C129.25 229.8475 129.25 230.5075 129.25 231.1875 C116.10045184 238.40406331 103.01094431 241.80337809 88.17504883 237.74902344 C72.35225598 232.93265348 59.63745188 223.84463404 50.25 210.1875 C49.25487692 208.85052287 48.25609061 207.51624357 47.25 206.1875 C46.92 206.8475 46.59 207.5075 46.25 208.1875 C45.59 208.1875 44.93 208.1875 44.25 208.1875 C44.25 208.8475 44.25 209.5075 44.25 210.1875 C32.09505701 215.9765154 19.81779004 220.75663329 7 224.875 C5.61566772 225.32153931 5.61566772 225.32153931 4.20336914 225.77709961 C-0.74888387 227.34277105 -5.6679887 228.66824891 -10.75146484 229.72998047 C-12.96575774 230.20213937 -12.96575774 230.20213937 -15.8984375 231.24609375 C-19.05595961 232.28850858 -22.08391358 232.79140599 -25.375 233.25 C-28.89207976 233.74599843 -32.32336634 234.24308633 -35.75 235.1875 C-35.54375 236.30125 -35.3375 237.415 -35.125 238.5625 C-33.35249777 252.94508956 -41.06521641 268.1932988 -49.43359375 279.3203125 C-60.07600716 292.49321544 -73.5677169 302.75704175 -90.75 305.1875 C-100.5512523 305.82697945 -108.05563069 304.64118584 -116.75 300.1875 C-116.75 299.5275 -116.75 298.8675 -116.75 298.1875 C-117.34039062 297.92710937 -117.93078125 297.66671875 -118.5390625 297.3984375 C-128.01699932 292.20734136 -132.67024709 279.93282142 -135.75 270.1875 C-136.92175781 270.73019531 -138.09351563 271.27289063 -139.30078125 271.83203125 C-163.09211754 282.71907649 -163.09211754 282.71907649 -170.75 281.1875 C-172.6875 278.9375 -172.6875 278.9375 -173.75 276.1875 C-173.48561594 274.00633149 -172.81249024 272.34372561 -172 270.3125 C-171.53336779 268.02067143 -171.53336779 268.02067143 -173.0625 265.5625 C-175.25663828 261.17422344 -175.95442298 257.00041221 -176.75 252.1875 C-176.93691406 251.20265625 -177.12382812 250.2178125 -177.31640625 249.203125 C-180.38156236 231.28375081 -179.5319529 214.41877732 -173.75 197.1875 C-173.4509375 196.26195312 -173.151875 195.33640625 -172.84375 194.3828125 C-170.83771845 188.86622573 -168.02141869 183.69708601 -165.3125 178.5 C-164.94092773 177.78634277 -164.56935547 177.07268555 -164.18652344 176.33740234 C-161.69730467 171.67255863 -159.01896221 167.35147023 -155.75 163.1875 C-155.09 163.1875 -154.43 163.1875 -153.75 163.1875 C-153.894375 162.51589844 -154.03875 161.84429687 -154.1875 161.15234375 C-160.25628386 128.49048617 -152.73098613 95.55425193 -134.8125 67.875 C-110.35274162 32.66056186 -74.02121454 10.26586795 -32.18017578 2.39135742 C-21.43133207 0.48477995 -10.91215848 0.00547799 0 0 Z " fill="#FDFDFD" transform="translate(210.75,15.8125)"/>
<path d="M0 0 C1.2684375 -0.01224609 2.536875 -0.02449219 3.84375 -0.03710938 C12.48726715 -0.05033925 20.73117318 0.76150452 29.25 2.1875 C30.55195313 2.37570313 31.85390625 2.56390625 33.1953125 2.7578125 C54.04133674 6.39434253 72.63977156 15.87372926 87.25 31.1875 C88.58984375 33.51953125 88.58984375 33.51953125 89.25 35.1875 C89.91 35.1875 90.57 35.1875 91.25 35.1875 C92.93541013 37.81431038 94.47438558 40.48088175 95.9765625 43.21484375 C98.53216951 47.62277058 100.94437611 49.70253992 105.25 52.1875 C104.92 53.5075 104.59 54.8275 104.25 56.1875 C103.59 56.1875 102.93 56.1875 102.25 56.1875 C102.58 57.5075 102.91 58.8275 103.25 60.1875 C87.02289837 65.57394918 87.02289837 65.57394918 82.25 63.1875 C81.87875 64.31091797 81.87875 64.31091797 81.5 65.45703125 C79.37201797 70.105342 75.60285533 72.66152486 71.25 75.1875 C68.65112857 75.89104064 66.12412197 76.29493197 63.4609375 76.671875 C60.08169748 77.45996631 58.53064602 79.66678597 56.25 82.1875 C45.36115326 88.76189803 31.80139034 91.95265971 19.25 93.1875 C18.41726562 93.27128906 17.58453125 93.35507813 16.7265625 93.44140625 C10.27809964 93.78253654 5.51419571 91.95128834 0.59375 87.78515625 C-11.65059189 75.00980974 -14.15943505 51.03127959 -13.96484375 34.05859375 C-13.57189936 28.80742787 -12.26269488 24.88355183 -8.6875 20.875 C-0.87052845 16.38439932 7.26203645 15.661308 16.125 15.75 C17.21417725 15.75902344 18.30335449 15.76804687 19.42553711 15.77734375 C38.73363317 16.18332547 57.37718973 20.32014413 72.0625 33.64453125 C73.25 35.1875 73.25 35.1875 73.25 38.1875 C70.11538592 36.74458241 67.5544082 34.96032985 64.8125 32.875 C49.70157322 22.32586244 31.41988176 20.97351883 13.5 20.8125 C12.50057373 20.79856201 11.50114746 20.78462402 10.47143555 20.77026367 C4.39791525 20.80972541 -0.30827177 21.39342878 -5.75 24.1875 C-9.1338477 27.97928191 -9.22349373 31.86573573 -9.125 36.75 C-9.1108606 37.8496106 -9.1108606 37.8496106 -9.09643555 38.97143555 C-8.74107413 52.45676406 -7.15276162 66.1423047 -0.75 78.1875 C-0.42 78.81914063 -0.09 79.45078125 0.25 80.1015625 C2.55646841 84.00333823 5.1635353 86.29021282 9.25 88.1875 C23.43116255 90.4290386 43.40966779 85.03350327 55.25 77.1875 C55.58 76.5275 55.91 75.8675 56.25 75.1875 C54.9196875 74.81625 54.9196875 74.81625 53.5625 74.4375 C49.43187812 72.87877476 46.54304403 70.97313223 43.9375 67.375 C42.51436485 62.84684272 42.66244871 59.38708387 44.75 55.125 C50.74452522 48.08143286 59.08524429 42.9267967 68.25 41.1875 C70.41438027 41.06998945 72.58246771 41.01242851 74.75 41 C75.8740625 40.98582031 76.998125 40.97164062 78.15625 40.95703125 C81.11976056 41.17779782 82.7567415 41.6414353 85.25 43.1875 C84.92 43.8475 84.59 44.5075 84.25 45.1875 C83.59 45.1875 82.93 45.1875 82.25 45.1875 C82.58 45.8475 82.91 46.5075 83.25 47.1875 C85.60599235 47.65501788 85.60599235 47.65501788 88.3125 47.8125 C89.69115234 47.92464844 89.69115234 47.92464844 91.09765625 48.0390625 C91.80792969 48.08804688 92.51820313 48.13703125 93.25 48.1875 C81.56257723 27.83126034 63.23877846 16.17336128 41.06665039 9.83081055 C-0.00023134 -0.99845422 -46.02394606 5.44948223 -82.80224609 26.51464844 C-102.10194671 38.00607323 -118.61530606 53.25105024 -130.75 72.1875 C-131.37003906 73.12335938 -131.99007812 74.05921875 -132.62890625 75.0234375 C-150.31619965 103.27562427 -151.98679105 133.85001758 -148.75 166.1875 C-149.74 166.5175 -150.73 166.8475 -151.75 167.1875 C-152.41 166.8575 -153.07 166.5275 -153.75 166.1875 C-153.99363281 167.02539062 -154.23726562 167.86328125 -154.48828125 168.7265625 C-155.4433744 171.34641555 -156.35653398 173.39894065 -157.73046875 175.7734375 C-158.08947266 176.39476562 -158.44847656 177.01609375 -158.81835938 177.65625 C-159.56407996 178.92644771 -160.32195061 180.18959034 -161.09179688 181.4453125 C-163.98741165 186.53234535 -163.86910154 189.46376191 -162.75 195.1875 C-162.18539226 204.22122377 -162.96738614 211.82780964 -168.75 219.1875 C-171.75 221.1875 -171.75 221.1875 -174.75 221.1875 C-174.6090651 223.62537385 -174.46245458 226.06267853 -174.3125 228.5 C-174.27318359 229.19029297 -174.23386719 229.88058594 -174.19335938 230.59179688 C-174.00072585 233.65911535 -173.72677283 236.25718152 -172.75 239.1875 C-172.04875 238.9709375 -171.3475 238.754375 -170.625 238.53125 C-164.78228307 236.8165396 -159.83395612 235.84312513 -153.75 236.1875 C-153.75 235.5275 -153.75 234.8675 -153.75 234.1875 C-152.76 234.1875 -151.77 234.1875 -150.75 234.1875 C-147.76311724 239.61003824 -146.05899128 243.90860994 -147.140625 250.1171875 C-148.74080514 255.55369693 -152.16959158 259.0594162 -156.75 262.1875 C-160.5341917 264.12811113 -163.52041116 264.38422506 -167.75 264.1875 C-166.76 266.4975 -165.77 268.8075 -164.75 271.1875 C-163.72261719 270.66800781 -162.69523437 270.14851563 -161.63671875 269.61328125 C-153.74441036 265.63659588 -145.83024905 261.77202889 -137.75 258.1875 C-137.71036133 257.59437012 -137.67072266 257.00124023 -137.62988281 256.39013672 C-136.30228634 237.44071417 -134.7341759 221.55786373 -120.375 207.75 C-112.38025927 201.0742569 -103.87692625 200.5663986 -93.75 200.1875 C-92.07550781 200.10822266 -92.07550781 200.10822266 -90.3671875 200.02734375 C-74.42586153 199.60974637 -58.80512033 202.29577939 -46.75 213.625 C-45.71780582 214.78462556 -44.71559593 215.97185994 -43.75 217.1875 C-43.29238281 217.74566406 -42.83476562 218.30382812 -42.36328125 218.87890625 C-36.52361127 226.99832727 -33.6860226 238.65285039 -35.13671875 248.5 C-39.36973705 267.04978722 -49.96694093 285.11507278 -66.28515625 295.55078125 C-78.58181715 302.94523918 -91.9200956 307.82016659 -106.453125 304.5859375 C-110.05384651 303.40556853 -113.37928875 301.91414496 -116.75 300.1875 C-116.75 299.5275 -116.75 298.8675 -116.75 298.1875 C-117.34039062 297.92710937 -117.93078125 297.66671875 -118.5390625 297.3984375 C-128.01699932 292.20734136 -132.67024709 279.93282142 -135.75 270.1875 C-136.92175781 270.73019531 -138.09351563 271.27289063 -139.30078125 271.83203125 C-163.09211754 282.71907649 -163.09211754 282.71907649 -170.75 281.1875 C-172.6875 278.9375 -172.6875 278.9375 -173.75 276.1875 C-173.48561594 274.00633149 -172.81249024 272.34372561 -172 270.3125 C-171.53336779 268.02067143 -171.53336779 268.02067143 -173.0625 265.5625 C-175.25663828 261.17422344 -175.95442298 257.00041221 -176.75 252.1875 C-176.93691406 251.20265625 -177.12382812 250.2178125 -177.31640625 249.203125 C-180.38156236 231.28375081 -179.5319529 214.41877732 -173.75 197.1875 C-173.4509375 196.26195312 -173.151875 195.33640625 -172.84375 194.3828125 C-170.83771845 188.86622573 -168.02141869 183.69708601 -165.3125 178.5 C-164.94092773 177.78634277 -164.56935547 177.07268555 -164.18652344 176.33740234 C-161.69730467 171.67255863 -159.01896221 167.35147023 -155.75 163.1875 C-155.09 163.1875 -154.43 163.1875 -153.75 163.1875 C-153.894375 162.51589844 -154.03875 161.84429687 -154.1875 161.15234375 C-160.25628386 128.49048617 -152.73098613 95.55425193 -134.8125 67.875 C-110.35274162 32.66056186 -74.02121454 10.26586795 -32.18017578 2.39135742 C-21.43133207 0.48477995 -10.91215848 0.00547799 0 0 Z " fill="#5A301D" transform="translate(210.75,15.8125)"/>
<path d="M0 0 C1.79359237 0.51798008 3.58793939 1.03335041 5.3828125 1.546875 C7.36027535 2.13238441 9.33683528 2.72095158 11.3125 3.3125 C12.24473389 3.58392822 13.17696777 3.85535645 14.13745117 4.13500977 C20.43225475 6.10548343 24.99264953 8.7407766 30 13 C30.62656494 13.50861572 31.25312988 14.01723145 31.89868164 14.54125977 C33.74440927 16.04663705 35.56192428 17.58052809 37.375 19.125 C37.98988281 19.63675781 38.60476563 20.14851563 39.23828125 20.67578125 C42.31071777 23.29104998 44.30602398 25.28694145 46 29 C46.99 29.33 47.98 29.66 49 30 C49.6875 32.0625 49.6875 32.0625 50 34 C50.66 34 51.32 34 52 34 C53.30604787 36.30532636 54.59452121 38.61801679 55.875 40.9375 C56.42220703 41.8975293 56.42220703 41.8975293 56.98046875 42.87695312 C61.65077852 51.41088279 62.29880619 59.45636554 62.125 69.0625 C62.11597656 70.02349609 62.10695313 70.98449219 62.09765625 71.97460938 C62.07435208 74.31667805 62.04164058 76.65819792 62 79 C60.515 79.495 60.515 79.495 59 80 C59.28875 81.010625 59.5775 82.02125 59.875 83.0625 C61.52796325 89.59170484 62.18302099 96.32510768 63 103 C58.20376776 104.21731783 56.33046872 103.39557844 52 101 C49.71801414 100.17683877 48.52638601 99.82377512 46.203125 100.6015625 C45.23632812 101.10816406 45.23632812 101.10816406 44.25 101.625 C37.43508934 104.86069742 30.2095775 106.8454313 23 109 C21.824375 109.35215576 21.824375 109.35215576 20.625 109.71142578 C17.30934047 110.70439673 13.99345865 111.69662167 10.67724609 112.68774414 C4.54383504 114.52516203 -1.57720716 116.39958647 -7.6875 118.3125 C-8.50774658 118.56700928 -9.32799316 118.82151855 -10.1730957 119.08374023 C-13.8772336 120.00822069 -13.8772336 120.00822069 -17 122 C-16.66843802 123.66701996 -16.33463769 125.33359474 -16 127 C-14.88780101 145.32989491 -19.77920672 159.5365004 -31 174 C-32.5962325 175.79361609 -34.22536201 177.37324851 -36 179 C-36.556875 179.598125 -37.11375 180.19625 -37.6875 180.8125 C-39 182 -39 182 -41 182 C-41 182.66 -41 183.32 -41 184 C-54.14954816 191.21656331 -67.23905569 194.61587809 -82.07495117 190.56152344 C-99.60401788 185.22577323 -114.23932554 174.26982399 -123 158 C-124.00901308 155.67055005 -125.00988471 153.3375449 -126 151 C-126.79994385 151.33209473 -127.5998877 151.66418945 -128.42407227 152.00634766 C-129.54354248 152.47089355 -130.6630127 152.93543945 -131.81640625 153.4140625 C-132.41912354 153.66419098 -133.02184082 153.91431946 -133.64282227 154.17202759 C-136.97189455 155.55289903 -140.30215969 156.93079526 -143.63452148 158.30371094 C-144.3056749 158.58032562 -144.97682831 158.85694031 -145.6683197 159.14193726 C-146.95625801 159.67255032 -148.24438315 160.20271022 -149.5327301 160.73233032 C-152.71065309 162.04185554 -155.87820885 163.37234548 -159.03442383 164.7331543 C-167.28724359 168.28133568 -175.75319845 170.81233782 -184.375 173.3125 C-185.57713135 173.66280273 -186.7792627 174.01310547 -188.01782227 174.37402344 C-194.3752064 176.16802863 -200.40883324 177.51307226 -207 178 C-207 176.68 -207 175.36 -207 174 C-206.22849609 173.79020508 -205.45699219 173.58041016 -204.66210938 173.36425781 C-185.28863357 168.04481905 -166.53889304 161.73810034 -147.81298828 154.47509766 C-143.60924536 152.84625254 -139.39929974 151.23434214 -135.18359375 149.63671875 C-134.15130394 149.24115532 -134.15130394 149.24115532 -133.09815979 148.83760071 C-128.23014198 147 -128.23014198 147 -126 147 C-126.16081055 146.4220166 -126.32162109 145.8440332 -126.48730469 145.24853516 C-128.63364894 135.83528249 -127.94447441 123.79921214 -124 115 C-123.67128906 114.25878906 -123.34257812 113.51757812 -123.00390625 112.75390625 C-116.45808321 99.68491007 -105.2496894 90.38320319 -91.54296875 85.7265625 C-73.98875492 80.71107283 -56.2905265 84.51962536 -40.5546875 92.94140625 C-36.52663425 95.20234731 -33.27352093 97.72647907 -30 101 C-28.7934375 102.175625 -28.7934375 102.175625 -27.5625 103.375 C-27.046875 103.91125 -26.53125 104.4475 -26 105 C-24.00108152 104.3458085 -22.00396073 103.6859691 -20.01171875 103.01171875 C-17.91643287 102.30785488 -15.81421529 101.62443118 -13.70703125 100.95703125 C-2.2490154 97.2134431 8.62003186 92.22156344 19.52001953 87.11401367 C42.23012719 76.54603484 42.23012719 76.54603484 53 77 C52.5899433 74.92064793 52.5899433 74.92064793 51 73 C49.01088756 72.7717412 47.02104958 72.54714924 45.02734375 72.36328125 C43 72 43 72 40.25 70.25 C33.98097278 61.19473846 31.68048708 47.86398969 33 37 C34.34303764 34.09366654 35.44697612 33.08883772 38 31 C39.32 31 40.64 31 42 31 C41.01 29.68 40.02 28.36 39 27 C38.45601562 27.15855469 37.91203125 27.31710938 37.3515625 27.48046875 C28.76972982 29.37645504 20.63100957 28.27136706 13 24 C7.36816578 20.25726923 2.08275567 16.16551133 -1 10 C-1.039992 8.00039988 -1.04346799 5.99952758 -1 4 C-21.44007918 -0.34675102 -40.16295613 -1.15195377 -59.0625 9.12109375 C-61 10 -61 10 -64 10 C-63.78125 8.16015625 -63.78125 8.16015625 -63 6 C-45.93773028 -5.95035955 -19.08344421 -6.14478249 0 0 Z " fill="#FCFCFB" transform="translate(381,63)"/>
<path d="M0 0 C8.98951866 0.14014007 18.60417158 2.36550892 26.14990234 7.39599609 C25.68583984 8.75724609 25.68583984 8.75724609 25.21240234 10.14599609 C24.42267605 12.56162947 23.72040938 14.92379895 23.14990234 17.39599609 C23.80990234 17.39599609 24.46990234 17.39599609 25.14990234 17.39599609 C26.46990234 14.75599609 27.78990234 12.11599609 29.14990234 9.39599609 C33.27098864 12.80381745 37.0761699 15.96982138 40.14990234 20.39599609 C40.14990234 21.05599609 40.14990234 21.71599609 40.14990234 22.39599609 C37.83990234 23.38599609 35.52990234 24.37599609 33.14990234 25.39599609 C36.35052922 26.99630953 38.8726204 25.427733 42.14990234 24.39599609 C44.28833456 29.60842463 44.31793834 33.85080835 44.14990234 39.39599609 C40.51990234 40.38599609 36.88990234 41.37599609 33.14990234 42.39599609 C33.14990234 43.05599609 33.14990234 43.71599609 33.14990234 44.39599609 C36.77990234 44.06599609 40.40990234 43.73599609 44.14990234 43.39599609 C42.98220458 50.30487453 41.27037583 56.12475326 38.14990234 62.39599609 C34.35889044 60.94649154 30.76243854 59.24427043 27.14990234 57.39599609 C29.53947504 60.6389876 31.35468924 62.90501952 35.14990234 64.39599609 C33.90625095 71.61244695 27.31806346 77.54105686 22.14990234 82.39599609 C18.36666477 81.1349169 17.46241033 79.48981512 15.08740234 76.33349609 C13.82095204 74.65197082 12.51772612 72.99614663 11.14990234 71.39599609 C10.48990234 71.39599609 9.82990234 71.39599609 9.14990234 71.39599609 C10.59414869 74.63460912 12.40762481 77.01568773 14.77490234 79.64599609 C15.40654297 80.35240234 16.03818359 81.05880859 16.68896484 81.78662109 C17.17107422 82.31771484 17.65318359 82.84880859 18.14990234 83.39599609 C16.8936725 87.45811157 14.33055462 88.73879886 10.78857422 90.64013672 C10.1034375 90.99269531 9.41830078 91.34525391 8.71240234 91.70849609 C8.03113281 92.08039063 7.34986328 92.45228516 6.64794922 92.83544922 C4.85865662 93.77653651 3.0061926 94.5951217 1.14990234 95.39599609 C0.15990234 95.06599609 -0.83009766 94.73599609 -1.85009766 94.39599609 C-1.52009766 91.09599609 -1.19009766 87.79599609 -0.85009766 84.39599609 C-1.84009766 83.90099609 -1.84009766 83.90099609 -2.85009766 83.39599609 C-2.89908203 83.99927734 -2.94806641 84.60255859 -2.99853516 85.22412109 C-3.07330078 86.02333984 -3.14806641 86.82255859 -3.22509766 87.64599609 C-3.29470703 88.43490234 -3.36431641 89.22380859 -3.43603516 90.03662109 C-3.87130815 92.51685591 -4.53379457 94.25581985 -5.85009766 96.39599609 C-11.74115856 99.34152655 -19.79431373 97.48637452 -25.77978516 95.54052734 C-28.641401 93.95853972 -30.62428782 91.76528147 -32.85009766 89.39599609 C-31.85107422 88.84169922 -30.85205078 88.28740234 -29.82275391 87.71630859 C-28.51920855 86.98482271 -27.21583182 86.25303627 -25.91259766 85.52099609 C-24.92356445 84.97378906 -24.92356445 84.97378906 -23.91455078 84.41552734 C-20.27073397 82.54181711 -20.27073397 82.54181711 -17.85009766 79.39599609 C-22.82554248 81.17294067 -27.398873 83.10562831 -31.99072266 85.72412109 C-34.3921422 86.59186093 -35.46490205 86.24954012 -37.85009766 85.39599609 C-41.94925657 80.56284515 -43.99875218 76.01925783 -45.66259766 69.95849609 C-45.98647461 68.89018555 -45.98647461 68.89018555 -46.31689453 67.80029297 C-47.73002707 62.8610583 -48.052604 58.52808532 -47.85009766 53.39599609 C-46.07878205 53.70575078 -44.30805987 54.01890034 -42.53759766 54.33349609 C-41.55146484 54.50751953 -40.56533203 54.68154297 -39.54931641 54.86083984 C-36.85009766 55.39599609 -36.85009766 55.39599609 -33.85009766 56.39599609 C-34.34509766 54.91099609 -34.34509766 54.91099609 -34.85009766 53.39599609 C-38.1038469 52.35858728 -38.1038469 52.35858728 -41.91259766 51.70849609 C-43.848125 51.33144531 -43.848125 51.33144531 -45.82275391 50.94677734 C-46.82177734 50.76501953 -47.82080078 50.58326172 -48.85009766 50.39599609 C-49.32357596 41.39990833 -48.45060097 30.33686487 -43.85009766 22.39599609 C-43.45177734 22.85619141 -43.05345703 23.31638672 -42.64306641 23.79052734 C-40.55143249 25.6634283 -38.83587774 26.26988911 -36.16259766 27.08349609 C-35.35435547 27.33486328 -34.54611328 27.58623047 -33.71337891 27.84521484 C-33.09849609 28.02697266 -32.48361328 28.20873047 -31.85009766 28.39599609 C-32.65447266 27.63287109 -33.45884766 26.86974609 -34.28759766 26.08349609 C-36.85009766 23.39599609 -36.85009766 23.39599609 -37.85009766 20.39599609 C-35.50077098 14.80904011 -31.62994738 10.95309357 -26.85009766 7.39599609 C-26.01190608 9.0184955 -25.17968606 10.64408106 -24.35009766 12.27099609 C-23.88603516 13.17591797 -23.42197266 14.08083984 -22.94384766 15.01318359 C-21.85009766 17.39599609 -21.85009766 17.39599609 -21.85009766 19.39599609 C-20.86009766 19.39599609 -19.87009766 19.39599609 -18.85009766 19.39599609 C-19.12724609 18.63673828 -19.40439453 17.87748047 -19.68994141 17.09521484 C-20.05216797 16.10134766 -20.41439453 15.10748047 -20.78759766 14.08349609 C-21.14724609 13.09736328 -21.50689453 12.11123047 -21.87744141 11.09521484 C-22.55895731 9.2039398 -23.21437875 7.3031528 -23.85009766 5.39599609 C-19.47084841 2.93934408 -15.81842232 1.98050488 -10.85009766 1.39599609 C-8.59453346 -0.85956811 -3.11654857 0.02860439 0 0 Z " fill="#FCFBFB" transform="translate(126.85009765625,218.60400390625)"/>
<path d="M0 0 C1.79359237 0.51798008 3.58793939 1.03335041 5.3828125 1.546875 C7.36027535 2.13238441 9.33683528 2.72095158 11.3125 3.3125 C12.24473389 3.58392822 13.17696777 3.85535645 14.13745117 4.13500977 C20.43225475 6.10548343 24.99264953 8.7407766 30 13 C30.62656494 13.50861572 31.25312988 14.01723145 31.89868164 14.54125977 C33.74440927 16.04663705 35.56192428 17.58052809 37.375 19.125 C37.98988281 19.63675781 38.60476563 20.14851563 39.23828125 20.67578125 C42.31071777 23.29104998 44.30602398 25.28694145 46 29 C46.99 29.33 47.98 29.66 49 30 C49.6875 32.0625 49.6875 32.0625 50 34 C50.66 34 51.32 34 52 34 C53.30604787 36.30532636 54.59452121 38.61801679 55.875 40.9375 C56.42220703 41.8975293 56.42220703 41.8975293 56.98046875 42.87695312 C61.65077852 51.41088279 62.29880619 59.45636554 62.125 69.0625 C62.11597656 70.02349609 62.10695313 70.98449219 62.09765625 71.97460938 C62.07435208 74.31667805 62.04164058 76.65819792 62 79 C60.515 79.495 60.515 79.495 59 80 C59.28875 81.010625 59.5775 82.02125 59.875 83.0625 C61.52796325 89.59170484 62.18302099 96.32510768 63 103 C58.20376776 104.21731783 56.33046872 103.39557844 52 101 C49.71801414 100.17683877 48.52638601 99.82377512 46.203125 100.6015625 C45.23632812 101.10816406 45.23632812 101.10816406 44.25 101.625 C37.43508934 104.86069742 30.2095775 106.8454313 23 109 C21.824375 109.35215576 21.824375 109.35215576 20.625 109.71142578 C17.30934047 110.70439673 13.99345865 111.69662167 10.67724609 112.68774414 C4.54383504 114.52516203 -1.57720716 116.39958647 -7.6875 118.3125 C-8.50774658 118.56700928 -9.32799316 118.82151855 -10.1730957 119.08374023 C-13.8772336 120.00822069 -13.8772336 120.00822069 -17 122 C-16.66843802 123.66701996 -16.33463769 125.33359474 -16 127 C-14.88780101 145.32989491 -19.77920672 159.5365004 -31 174 C-32.5962325 175.79361609 -34.22536201 177.37324851 -36 179 C-36.556875 179.598125 -37.11375 180.19625 -37.6875 180.8125 C-39 182 -39 182 -41 182 C-41 182.66 -41 183.32 -41 184 C-54.14954816 191.21656331 -67.23905569 194.61587809 -82.07495117 190.56152344 C-99.60401788 185.22577323 -114.23932554 174.26982399 -123 158 C-124.00901308 155.67055005 -125.00988471 153.3375449 -126 151 C-126.79994385 151.33209473 -127.5998877 151.66418945 -128.42407227 152.00634766 C-129.54354248 152.47089355 -130.6630127 152.93543945 -131.81640625 153.4140625 C-132.41912354 153.66419098 -133.02184082 153.91431946 -133.64282227 154.17202759 C-136.97189455 155.55289903 -140.30215969 156.93079526 -143.63452148 158.30371094 C-144.3056749 158.58032562 -144.97682831 158.85694031 -145.6683197 159.14193726 C-146.95625801 159.67255032 -148.24438315 160.20271022 -149.5327301 160.73233032 C-152.71065309 162.04185554 -155.87820885 163.37234548 -159.03442383 164.7331543 C-167.28724359 168.28133568 -175.75319845 170.81233782 -184.375 173.3125 C-185.57713135 173.66280273 -186.7792627 174.01310547 -188.01782227 174.37402344 C-194.3752064 176.16802863 -200.40883324 177.51307226 -207 178 C-207 176.68 -207 175.36 -207 174 C-206.22849609 173.79020508 -205.45699219 173.58041016 -204.66210938 173.36425781 C-185.28863357 168.04481905 -166.53889304 161.73810034 -147.81298828 154.47509766 C-143.60924536 152.84625254 -139.39929974 151.23434214 -135.18359375 149.63671875 C-134.15130394 149.24115532 -134.15130394 149.24115532 -133.09815979 148.83760071 C-128.23014198 147 -128.23014198 147 -126 147 C-126.16081055 146.4220166 -126.32162109 145.8440332 -126.48730469 145.24853516 C-128.63364894 135.83528249 -127.94447441 123.79921214 -124 115 C-123.67128906 114.25878906 -123.34257812 113.51757812 -123.00390625 112.75390625 C-116.45808321 99.68491007 -105.2496894 90.38320319 -91.54296875 85.7265625 C-73.98875492 80.71107283 -56.2905265 84.51962536 -40.5546875 92.94140625 C-36.52663425 95.20234731 -33.27352093 97.72647907 -30 101 C-28.7934375 102.175625 -28.7934375 102.175625 -27.5625 103.375 C-27.046875 103.91125 -26.53125 104.4475 -26 105 C-24.00108152 104.3458085 -22.00396073 103.6859691 -20.01171875 103.01171875 C-17.91643287 102.30785488 -15.81421529 101.62443118 -13.70703125 100.95703125 C-2.2490154 97.2134431 8.62003186 92.22156344 19.52001953 87.11401367 C42.23012719 76.54603484 42.23012719 76.54603484 53 77 C52.5899433 74.92064793 52.5899433 74.92064793 51 73 C49.01088756 72.7717412 47.02104958 72.54714924 45.02734375 72.36328125 C43 72 43 72 40.25 70.25 C33.98097278 61.19473846 31.68048708 47.86398969 33 37 C34.34303764 34.09366654 35.44697612 33.08883772 38 31 C39.32 31 40.64 31 42 31 C41.01 29.68 40.02 28.36 39 27 C38.45601562 27.15855469 37.91203125 27.31710938 37.3515625 27.48046875 C28.76972982 29.37645504 20.63100957 28.27136706 13 24 C7.36816578 20.25726923 2.08275567 16.16551133 -1 10 C-1.039992 8.00039988 -1.04346799 5.99952758 -1 4 C-21.44007918 -0.34675102 -40.16295613 -1.15195377 -59.0625 9.12109375 C-61 10 -61 10 -64 10 C-63.78125 8.16015625 -63.78125 8.16015625 -63 6 C-45.93773028 -5.95035955 -19.08344421 -6.14478249 0 0 Z M-79 88 C-78.505 89.485 -78.505 89.485 -78 91 C-77.931009 93.06145107 -77.91532273 95.12501401 -77.9375 97.1875 C-77.94652344 98.27417969 -77.95554687 99.36085938 -77.96484375 100.48046875 C-77.97644531 101.31191406 -77.98804688 102.14335937 -78 103 C-78.99 103.33 -79.98 103.66 -81 104 C-80.67 103.01 -80.34 102.02 -80 101 C-79.68343283 94.71138713 -79.68343283 94.71138713 -82 89 C-89.41216681 89.35865323 -94.56479472 91.35920537 -101 95 C-100.37109247 98.45113008 -99.00848374 100.70910123 -97 103.5625 C-95.19972845 106.12875248 -93.99823137 108.00530589 -93 111 C-93.99 111 -94.98 111 -96 111 C-96.20625 110.34 -96.4125 109.68 -96.625 109 C-98.51152871 104.88393737 -101.20567979 101.5412297 -104 98 C-113.44150715 102.54890602 -119.0274641 110.57840234 -122.9375 120.1875 C-126.73913471 133.60081492 -123.63697434 146.96768026 -117.42578125 159.06640625 C-115.76055665 161.85730715 -113.9716442 164.41770487 -112 167 C-111.34257812 167.90621094 -110.68515625 168.81242187 -110.0078125 169.74609375 C-107.7828191 172.42342098 -106.03442993 174.2815449 -103 176 C-98.41208535 176.14482707 -94.38271192 175.30736229 -90 174 C-89.67 174.66 -89.34 175.32 -89 176 C-93.455 176.99 -93.455 176.99 -98 178 C-92.70978383 184.08309869 -84.53319291 186.41923507 -76.70703125 187.421875 C-72.8224622 187.53852037 -72.8224622 187.53852037 -69 187 C-66.67376352 183.51064529 -66.74927506 182.09517402 -67 178 C-67.43941523 175.73433657 -67.43941523 175.73433657 -68 174 C-67.34 173.67 -66.68 173.34 -66 173 C-65.34 176.63 -64.68 180.26 -64 184 C-54.79983533 183.69332784 -47.59519401 180.06346267 -40 175 C-41.50038188 171.18084612 -43.83265418 169.50053617 -47 167 C-47 166.34 -47 165.68 -47 165 C-42.75177626 165.47202486 -40.80010291 167.96655518 -38 171 C-32.45487134 168.61667256 -29.28607942 164.00722659 -26.94921875 158.54296875 C-25.48514981 154.36055783 -25.48514981 154.36055783 -25 150 C-26.670625 149.01 -26.670625 149.01 -28.375 148 C-29.31472656 147.443125 -29.31472656 147.443125 -30.2734375 146.875 C-31.97472667 145.84931652 -31.97472667 145.84931652 -34 146 C-33.505 145.01 -33.505 145.01 -33 144 C-30 145 -27 146 -24 147 C-23.48220857 133.70065215 -23.48220857 133.70065215 -27 121 C-30.63 121.99 -34.26 122.98 -38 124 C-38 123.34 -38 122.68 -38 122 C-37.030625 121.62875 -36.06125 121.2575 -35.0625 120.875 C-31.85048598 119.27989284 -31.85048598 119.27989284 -30.6875 116.375 C-31.4953407 107.65032041 -40.67842378 101.26081286 -47 96 C-50.41697637 99.0712109 -52.28807753 102.84576432 -54.5 106.8203125 C-56 109 -56 109 -59 110 C-55 102 -55 102 -51 94 C-52.55851755 93.17988688 -54.12201716 92.36923787 -55.6875 91.5625 C-56.55761719 91.11003906 -57.42773438 90.65757812 -58.32421875 90.19140625 C-63.18203926 88.02843507 -67.53198757 87.88416149 -72.8125 87.9375 C-74.55466797 87.95103516 -74.55466797 87.95103516 -76.33203125 87.96484375 C-77.21246094 87.97644531 -78.09289062 87.98804688 -79 88 Z " fill="#5A301D" transform="translate(381,63)"/>
<path d="M0 0 C0.80566406 0.06445312 1.61132812 0.12890625 2.44140625 0.1953125 C5.24049089 0.6895329 6.78859412 1.19777317 9 3 C10.6569619 6.88298142 11.18191038 10.71987616 11.72413635 14.88424683 C11.98223532 16.86375272 12.25887041 18.84081701 12.53686523 20.81762695 C13.98448938 31.60439403 14.242261 42.19152064 14.125 53.0625 C14.11492966 54.71939551 14.10581112 56.37629708 14.09765625 58.03320312 C14.07601061 62.02229036 14.04171509 66.01107426 14 70 C9.81522425 71.32129547 5.62674646 72.6304551 1.4375 73.9375 C0.25607422 74.31068359 -0.92535156 74.68386719 -2.14257812 75.06835938 C-14.58258966 78.93626212 -28.93096213 82.1720469 -41.265625 76.36328125 C-45.69092148 72.88483874 -46.82855138 67.75311356 -48.0625 62.5 C-48.23168945 61.79367432 -48.40087891 61.08734863 -48.57519531 60.35961914 C-50.07481135 53.94435418 -51.32223689 47.55950044 -52 41 C-52.14308594 39.74960938 -52.28617187 38.49921875 -52.43359375 37.2109375 C-52.85141304 30.79580441 -52.83027863 25.930394 -48.75 20.75 C-37.56297465 10.16385753 -15.80975447 -2.41415245 0 0 Z " fill="#FDFDFD" transform="translate(179,42)"/>
<path d="M0 0 C5.8357543 15.15596384 9.76281944 32.37143493 3 48 C-5.81413255 64.71724364 -20.23120674 73.45796098 -37 81 C-37.66 81 -38.32 81 -39 81 C-44.30820694 65.07537919 -37.83043626 44.00506363 -30.859375 29.53125 C-28.29852524 24.66778742 -25.41802138 20.29648482 -22 16 C-21.29617187 15.05253906 -21.29617187 15.05253906 -20.578125 14.0859375 C-16.23535537 8.54768635 -7.46367783 0 0 0 Z " fill="#FCFCFC" transform="translate(117,79)"/>
<path d="M0 0 C1.32837891 0.09861328 1.32837891 0.09861328 2.68359375 0.19921875 C5.69087606 0.67497168 7.51220203 1.2334352 10 3 C12.4375266 7.39565046 13.1822772 12.09580103 14 17 C14.14518066 17.77279297 14.29036133 18.54558594 14.43994141 19.34179688 C17.73587952 37.14198679 19.81649745 58.16847583 16 76 C14.53125 77.48046875 14.53125 77.48046875 12.5 78.1875 C11.70207031 78.47625 10.90414062 78.765 10.08203125 79.0625 C9.06496094 79.371875 8.04789062 79.68125 7 80 C6.33145996 80.20753906 5.66291992 80.41507812 4.97412109 80.62890625 C0.0037591 82.16466145 -4.98665801 83.61113389 -10 85 C-10.62769287 85.18175781 -11.25538574 85.36351563 -11.90209961 85.55078125 C-16.43106822 86.52055924 -21.13713477 86.2710174 -25.75 86.3125 C-26.80960937 86.34150391 -27.86921875 86.37050781 -28.9609375 86.40039062 C-35.53366625 86.4533965 -40.56789963 85.89596656 -46 82 C-47.83984375 80.18359375 -47.83984375 80.18359375 -48.9375 78.4375 C-49.31777344 77.85871094 -49.69804687 77.27992187 -50.08984375 76.68359375 C-51 75 -51 75 -52 72 C-52.32871094 73.64935547 -52.32871094 73.64935547 -52.6640625 75.33203125 C-56.23456105 92.34395306 -62.94686796 104.69878329 -77.64306641 114.67822266 C-82.09298361 117.56792827 -86.71066228 120.09449436 -91.4375 122.5 C-92.09943359 122.83845947 -92.76136719 123.17691895 -93.44335938 123.52563477 C-97.28418447 125.40470104 -100.74994009 126.52704125 -105 127 C-111.36204089 110.78951982 -105.77027205 89.40801557 -99.34375 73.98828125 C-98.9003125 73.00214844 -98.456875 72.01601562 -98 71 C-97.5359375 69.96230469 -97.071875 68.92460938 -96.59375 67.85546875 C-90.73587696 55.46980635 -81.32743923 42.01687565 -68 37 C-64.66055059 36.37414515 -61.39447554 36.07795247 -58 36 C-58 36.99 -58 37.98 -58 39 C-58.66 39 -59.32 39 -60 39 C-59.34 40.65 -58.68 42.3 -58 44 C-57.96132812 42.85724609 -57.96132812 42.85724609 -57.921875 41.69140625 C-57.4461144 33.03040076 -56.26870421 25.82512599 -49.875 19.5625 C-37.32045764 9.54681686 -16.5904577 -2.58959117 0 0 Z M-34.4375 14.375 C-35.27772705 14.82077393 -36.1179541 15.26654785 -36.98364258 15.72583008 C-43.60060893 19.39928494 -48.78296597 23.67444895 -53 30 C-54.09201209 38.99005299 -52.74436477 47.94927239 -51.25 56.8125 C-51.09321777 57.76608398 -50.93643555 58.71966797 -50.77490234 59.70214844 C-48.97210226 70.71491165 -48.97210226 70.71491165 -43.04394531 79.70751953 C-34.46778944 85.13061666 -22.77366935 83.76408465 -13.25 81.875 C-4.35794383 79.75930388 4.32412027 76.85804567 13 74 C13.5479069 44.37007415 13.5479069 44.37007415 10 15 C9.86634033 14.23880859 9.73268066 13.47761719 9.5949707 12.69335938 C8.8235473 8.58771567 8.8235473 8.58771567 6.15234375 5.5625 C-9.26560481 1.64683052 -20.88023282 7.0858391 -34.4375 14.375 Z M-81 51.8515625 C-97.09181434 69.13769119 -103.87167026 92.40831687 -103.23828125 115.65625 C-103.1392148 118.99567911 -103.1392148 118.99567911 -102 122 C-85.51132101 117.32820762 -70.04015285 106.38554664 -61.1875 91.5625 C-54.28748178 78.14831985 -55.98235336 62.36013043 -59.9296875 48.29296875 C-60.77973567 45.67767456 -61.66333774 43.39033746 -63 41 C-69.1705177 41 -76.61325483 47.80089862 -81 51.8515625 Z " fill="#5D3421" transform="translate(180,38)"/>
<path d="M0 0 C1.51953125 1.765625 1.51953125 1.765625 3 4 C2.6875 7.75 2.6875 7.75 2 11 C1.34 11 0.68 11 0 11 C0 11.66 0 12.32 0 13 C-12.15494299 18.7890154 -24.43220996 23.56913329 -37.25 27.6875 C-38.17288818 27.98519287 -39.09577637 28.28288574 -40.04663086 28.58959961 C-44.99880686 30.1552467 -49.91785088 31.48065352 -55.0012207 32.54248047 C-57.21628425 33.01487137 -57.21628425 33.01487137 -60.15234375 34.05859375 C-63.28873498 35.09545285 -66.29344511 35.6032113 -69.5625 36.0625 C-73.41595537 36.61169682 -77.17798801 37.2355976 -81 38 C-81.66 34.7 -82.32 31.4 -83 28 C-81 27 -81 27 -77.16015625 26.640625 C-54.61909586 24.28913871 -32.6558117 13.76903043 -12 5 C-8.00223793 3.32794252 -4.00149634 1.66309863 0 0 Z " fill="#F8F6F5" transform="translate(255,213)"/>
<path d="M0 0 C2.61157095 0.34786333 4.66276277 0.97526173 6.96484375 2.26171875 C7.95484375 3.74671875 7.95484375 3.74671875 8.96484375 5.26171875 C9.95484375 5.59171875 10.94484375 5.92171875 11.96484375 6.26171875 C14.82108229 9.75267696 15.46289275 12.7746978 15.234375 17.27734375 C14.78013607 20.62159562 13.9740154 22.52193923 11.96484375 25.26171875 C4.4584698 30.52186716 -2.89428881 32.42686726 -12.03515625 31.26171875 C-15.07575394 29.14037152 -15.74093864 27.71160195 -16.46875 24.125 C-17.12568195 15.79939301 -13.35860123 8.21535789 -8.078125 1.93359375 C-5.44562967 -0.22072365 -3.33208748 -0.17994513 0 0 Z " fill="#FCFBFB" transform="translate(313.03515625,186.73828125)"/>
<path d="M0 0 C2.10881908 4.83588632 2.85445821 8.7686232 2 14 C-0.46936354 19.79586152 -4.32079734 24.16039867 -10 27 C-23.42111132 27.96394722 -23.42111132 27.96394722 -29 24 C-29.61875 23.608125 -30.2375 23.21625 -30.875 22.8125 C-32.83621688 19.65276169 -32.78070414 16.50994256 -32 13 C-28.17328188 6.04742789 -21.76914365 3.42231836 -14.6875 0.75 C-9.7600496 -0.2521933 -5.00931819 -0.16305195 0 0 Z " fill="#FDFCFC" transform="translate(290,61)"/>
<path d="M0 0 C-2.297221 1.74271938 -4.59866729 3.39911152 -7 5 C-7.33 5.99 -7.66 6.98 -8 8 C-7.319375 7.505 -6.63875 7.01 -5.9375 6.5 C-2.22693494 4.60524338 -0.11629392 4.33845276 4 5 C6.65120042 7.22292958 8.45206119 9.90412239 10 13 C10.40378907 18.24925796 10.05029649 21.65563833 7 26 C1.98880462 30.52487684 -2.98328729 32.94611608 -9.765625 33.23046875 C-13.26883006 32.86912417 -14.79250592 31.69038341 -17 29 C-19.58857166 23.57632604 -19.85337193 18.1759012 -18.3125 12.44140625 C-14.87934426 2.81426535 -10.41941998 -1.041942 0 0 Z " fill="#FCFBFA" transform="translate(128,246)"/>
<path d="M0 0 C3.88709464 1.73117294 7.00094545 4.00094545 10 7 C10.70381157 8.98723268 11.3711811 10.98777953 12 13 C12.495 13.99 12.495 13.99 13 15 C13.66023677 20.29689956 14.23328116 25.66152327 11.68359375 30.49609375 C7.47178576 35.48053766 1.67334488 40.16583189 -5 41 C-10.2410121 41.38822312 -13.59155951 40.93896033 -18 38 C-22.28188789 32.67657181 -23.38389761 28.08724238 -23.28125 21.3125 C-22.37548026 13.86505989 -19.34876607 7.21504691 -14 2 C-9.51974417 -0.71074302 -5.09694072 -0.77064523 0 0 Z M-13.71484375 7.25390625 C-18.0805706 13.18545611 -19.8313266 19.75558252 -19 27 C-17.74853193 31.48367698 -16.06312937 34.57229837 -12 37 C-5.41198798 37.83061291 -0.05735403 35.53482984 5.1484375 31.671875 C8.83868002 28.33975728 9.83260006 25.33919956 10.4375 20.5 C9.81061324 15.48490592 7.51371017 12.51371017 4 9 C-1.0165166 8.52674372 -3.91526758 9.02928551 -8 12 C-6.86500606 8.70851757 -6.00716624 8.0040131 -2.875 6.25 C-1.92625 5.8375 -0.9775 5.425 0 5 C0 4.67 0 4.34 0 4 C-5.34228077 3.46577192 -9.61315049 3.22076496 -13.71484375 7.25390625 Z " fill="#5E3522" transform="translate(128,242)"/>
<path d="M0 0 C5.46940116 3.58164143 11.05541834 9.11083667 14 15 C14.51838766 20.20087292 14.66595399 24.61686478 12.375 29.375 C7.15781881 35.14135815 1.94277046 39.52018319 -5.9375 40.28515625 C-11.62629046 40.44550206 -15.25884886 40.40744825 -20 37 C-23.87162814 32.70981746 -24.61302134 29.24732603 -24.40234375 23.66015625 C-23.83850235 19.93223397 -22.54560066 16.73508388 -20.97265625 13.32421875 C-19.88278706 11.01641773 -19.88278706 11.01641773 -19.6875 8.4140625 C-19 6 -19 6 -16.77734375 4.19921875 C-6.34763144 -1.35277391 -6.34763144 -1.35277391 0 0 Z M-14.6796875 9.8828125 C-18.93679073 16.70929165 -21.32143337 22.84405642 -20 31 C-18.93930567 34.30531651 -18.93930567 34.30531651 -16 36 C-8.49146351 37.37759926 -1.58853314 35.68008157 5 32 C8.18375958 29.33603791 9.69361236 27.91916291 11 24 C11.3422852 18.69457942 11.51044576 15.29054482 8 11 C7.01 10.67 6.02 10.34 5 10 C4.525625 9.34 4.05125 8.68 3.5625 8 C2.1970602 5.92926044 2.1970602 5.92926044 0.3125 5.25 C-0.450625 5.1675 -1.21375 5.085 -2 5 C-3.27875 4.835 -4.5575 4.67 -5.875 4.5 C-10.3469639 4.5748098 -12.10650787 6.38160088 -14.6796875 9.8828125 Z " fill="#5C321F" transform="translate(317,182)"/>
<path d="M0 0 C0 1.65 0 3.3 0 5 C-7.61606835 9.18933278 -15.73072399 11.80245367 -23.9375 14.5625 C-25.47725772 15.08459079 -27.01688801 15.60705754 -28.55639648 16.12988281 C-32.55890703 17.48705281 -36.56409054 18.83614498 -40.57019043 20.18267822 C-42.99043611 20.99678297 -45.40987986 21.81322894 -47.82910156 22.63037109 C-51.67571244 23.92925131 -55.52362657 25.22418316 -59.37283325 26.51535034 C-60.82968494 27.00413504 -62.28629031 27.49365449 -63.74264526 27.98391724 C-65.76619839 28.66429315 -67.79106241 29.34060139 -69.81640625 30.015625 C-70.96568604 30.40008789 -72.11496582 30.78455078 -73.29907227 31.18066406 C-76 32 -76 32 -78 32 C-78.66 30.68 -79.32 29.36 -80 28 C-79.46858398 27.86537354 -78.93716797 27.73074707 -78.38964844 27.59204102 C-65.42096885 24.24712141 -53.49161824 19.89227334 -41.40673828 14.14355469 C-31.84579088 9.60069837 -22.29182799 5.19993743 -12.1875 2 C-11.20958496 1.68820801 -11.20958496 1.68820801 -10.21191406 1.37011719 C-6.71907709 0.32097994 -3.6458623 -0.22222399 0 0 Z " fill="#F7F5F5" transform="translate(436,143)"/>
<path d="M0 0 C0.88945312 0.31130859 0.88945312 0.31130859 1.796875 0.62890625 C1.466875 1.61890625 1.136875 2.60890625 0.796875 3.62890625 C0.136875 3.62890625 -0.523125 3.62890625 -1.203125 3.62890625 C-1.203125 4.28890625 -1.203125 4.94890625 -1.203125 5.62890625 C-13.35806799 11.41792165 -25.63533496 16.19803954 -38.453125 20.31640625 C-39.37601318 20.61409912 -40.29890137 20.91179199 -41.24975586 21.21850586 C-46.23867005 22.79576786 -51.19610072 24.15875095 -56.32543945 25.19799805 C-58.41425672 25.63133552 -58.41425672 25.63133552 -61.140625 26.75390625 C-65.49857979 27.99903619 -69.70145218 27.78904481 -74.203125 27.62890625 C-74.203125 26.30890625 -74.203125 24.98890625 -74.203125 23.62890625 C-73.63730713 23.51933594 -73.07148926 23.40976563 -72.48852539 23.296875 C-56.65609841 20.17637262 -41.45498352 15.88450665 -26.203125 10.62890625 C-25.37006836 10.34337891 -24.53701172 10.05785156 -23.67871094 9.76367188 C-14.20880723 6.49623874 -14.20880723 6.49623874 -5.453125 1.69140625 C-2.203125 -0.37109375 -2.203125 -0.37109375 0 0 Z " fill="#572C19" transform="translate(256.203125,220.37109375)"/>
<path d="M0 0 C1.50576582 4.51729745 2.13905625 7.388017 1 12 C-1.68421327 12.8454215 -4.37156768 13.67647233 -7.0625 14.5 C-7.81466797 14.73847656 -8.56683594 14.97695312 -9.34179688 15.22265625 C-14.01264573 16.638065 -18.06402465 17.40772763 -23 17 C-25.875 15.375 -25.875 15.375 -28 13 C-28.875 9.8125 -28.875 9.8125 -29 7 C-27.1242135 5.1242135 -24.01524816 5.12482495 -21.5 4.625 C-16.44735465 3.58157476 -11.69227887 2.29928646 -6.84375 0.5625 C-4.51582413 -0.14771467 -2.41552065 -0.23376006 0 0 Z " fill="#633B29" transform="translate(243,122)"/>
<path d="M0 0 C7.1441053 6.35031582 10.81029252 14.82524797 13 24 C13.31199867 29.51640206 13.31199867 29.51640206 11.75 31.9375 C10 33 10 33 8.125 33.0625 C3.31072847 30.65536423 1.51746241 27.48037789 -0.20703125 22.546875 C-2.11867573 16.0477773 -3.55615311 9.81287563 -3 3 C-2.01 3 -1.02 3 0 3 C0 2.01 0 1.02 0 0 Z " fill="#F8F7F6" transform="translate(426,97)"/>
<path d="M0 0 C0.66 4.62 1.32 9.24 2 14 C-0.45620851 15.17133058 -2.91474917 16.33721722 -5.375 17.5 C-6.07367188 17.83386719 -6.77234375 18.16773438 -7.4921875 18.51171875 C-12.7734375 21 -12.7734375 21 -15 21 C-15.50744423 19.10614563 -16.00564574 17.20981334 -16.5 15.3125 C-16.7784375 14.25675781 -17.056875 13.20101563 -17.34375 12.11328125 C-17.9391715 9.28857328 -18.12786492 6.87163292 -18 4 C-12.08517976 1.86744576 -6.37035205 0 0 0 Z " fill="#FBFAF9" transform="translate(56,255)"/>
<path d="M0 0 C3.2423893 0.27019911 4.69743822 0.70660676 7.0625 3 C11.74150385 10.24490919 13.97628594 17.9807263 15.9375 26.3125 C16.19273437 27.35849365 16.44796875 28.4044873 16.7109375 29.48217773 C17.92847048 34.47686451 19.11264282 39.47896191 20.28515625 44.484375 C22.48505801 53.73868097 25.05815885 62.34131921 28.9609375 71.03125 C30.00146096 74.00417416 30.18942427 75.14538175 29 78 C25.22105055 74.77605824 23.57994719 71.26602754 21.9375 66.6875 C21.67855957 65.98181885 21.41961914 65.2761377 21.15283203 64.54907227 C19.08218999 58.69052701 17.80456155 52.80502601 16.6953125 46.69140625 C14.78563079 36.55292753 11.6894498 26.69362237 8.5625 16.875 C8.14822754 15.52317627 8.14822754 15.52317627 7.72558594 14.14404297 C5.96899208 8.77194538 4.23130565 5.73051647 0 2 C0 1.34 0 0.68 0 0 Z " fill="#5E3522" transform="translate(185,135)"/>
<path d="M0 0 C11.13571797 3.12581557 22.84691733 8.64806165 31 17 C31 17.66 31 18.32 31 19 C20.89760031 19.65176772 11.93869352 16.34729643 4 10 C0.92897863 6.23799883 0 4.8987475 0 0 Z " fill="#F8F6F5" transform="translate(383,68)"/>
<path d="M0 0 C0 0.66 0 1.32 0 2 C-11.36375764 7.26252163 -22.91844158 10.78517242 -35.01171875 14 C-43.73729453 16.33167787 -52.29984832 18.95552546 -60.83105469 21.91796875 C-66.83522227 24 -66.83522227 24 -69 24 C-69 23.34 -69 22.68 -69 22 C-50.40789631 14.75675673 -31.55645837 8.40909589 -12.60498047 2.18579102 C-10.29317786 1.42536671 -7.99335578 0.62686158 -5.71142578 -0.21899414 C-3 -1 -3 -1 0 0 Z " fill="#EFEBEA" transform="translate(430,156)"/>
<path d="M0 0 C-0.33 0.99 -0.66 1.98 -1 3 C-3.7750728 4.18552526 -6.45443705 5.19031713 -9.3125 6.125 C-10.08529297 6.38925781 -10.85808594 6.65351563 -11.65429688 6.92578125 C-15.0805225 8.08651461 -18.48061129 9.15621314 -22 10 C-22 10.99 -22 11.98 -22 13 C-21.26394531 12.71125 -20.52789062 12.4225 -19.76953125 12.125 C-18.30580078 11.568125 -18.30580078 11.568125 -16.8125 11 C-15.84957031 10.62875 -14.88664062 10.2575 -13.89453125 9.875 C-11.07817642 9.02363228 -8.91835561 8.82927353 -6 9 C-6.33 7.68 -6.66 6.36 -7 5 C-4.20171644 5.38597015 -3.1794116 5.80136573 -1.25 7.9375 C0 10 0 10 0 12 C-1.14275391 12.14695313 -1.14275391 12.14695313 -2.30859375 12.296875 C-8.43088523 13.18349898 -13.63690781 14.3771187 -19.16015625 17.1953125 C-21 18 -21 18 -24 18 C-25.28099364 15.36266016 -26.01728885 13.4765708 -25.91015625 10.5234375 C-25 8 -25 8 -22.5234375 6.26953125 C-8.11996451 -0.39609583 -8.11996451 -0.39609583 0 0 Z " fill="#5D3421" transform="translate(124,158)"/>
<path d="M0 0 C4.16716161 -0.39687253 6.96779986 -0.05913483 10.37109375 2.5 C19.36447134 10.78167145 25.60011288 22.32923362 29 34 C29.125 37.375 29.125 37.375 29 40 C28.01 40 27.02 40 26 40 C25.8040625 39.23558594 25.608125 38.47117188 25.40625 37.68359375 C23.54754816 31.02591604 21.25835163 25.08220601 18 19 C17.66806641 18.37794678 17.33613281 17.75589355 16.99414062 17.11499023 C13.74305678 11.22040477 10.94994609 7.04273833 4.75 4.1875 C3.85796875 3.76855469 2.9659375 3.34960938 2.046875 2.91796875 C1.37140625 2.61503906 0.6959375 2.31210938 0 2 C0 1.34 0 0.68 0 0 Z " fill="#613926" transform="translate(303,99)"/>
<path d="M0 0 C0.33 1.65 0.66 3.3 1 5 C-6.24119883 7.74454913 -12.23248766 9.51783416 -20 9 C-20.66 7.68 -21.32 6.36 -22 5 C-20.87980469 4.72285156 -19.75960937 4.44570312 -18.60546875 4.16015625 C-17.13279698 3.79433333 -15.66014158 3.42844447 -14.1875 3.0625 C-13.08051758 2.78889648 -13.08051758 2.78889648 -11.95117188 2.50976562 C-1.86647727 0 -1.86647727 0 0 0 Z " fill="#F5F3F2" transform="translate(240,126)"/>
<path d="M0 0 C1.32 0 2.64 0 4 0 C4.06058594 1.03898438 4.12117188 2.07796875 4.18359375 3.1484375 C4.63884613 10.78421984 5.14095871 18.39657074 6 26 C5.01 26 4.02 26 3 26 C0.33578751 19.90237981 -0.39757601 15.11470109 -0.1875 8.5 C-0.17396484 7.67757812 -0.16042969 6.85515625 -0.14648438 6.0078125 C-0.11155016 4.00491779 -0.05776057 2.00236644 0 0 Z " fill="#684231" transform="translate(74,187)"/>
<path d="M0 0 C1.4434007 2.67728756 2.35409065 5.06391656 2.9296875 8.046875 C3.08566406 8.81 3.24164063 9.573125 3.40234375 10.359375 C3.71418227 11.93660784 4.02157277 13.51472749 4.32421875 15.09375 C5.45485705 20.57229004 7.29253487 25.11507922 10 30 C10.33 30.66 10.66 31.32 11 32 C8.1875 31.4375 8.1875 31.4375 5 30 C2.58531091 25.27123387 1.3332029 20.72772701 0.3125 15.5 C0.06113281 14.2521875 -0.19023437 13.004375 -0.44921875 11.71875 C-0.98946388 8.07113748 -1.17196749 4.6810338 -1 1 C-0.67 0.67 -0.34 0.34 0 0 Z " fill="#EDE9E7" transform="translate(418,100)"/>
<path d="M0 0 C1.258125 -0.04125 2.51625 -0.0825 3.8125 -0.125 C4.52019531 -0.14820312 5.22789062 -0.17140625 5.95703125 -0.1953125 C8 0 8 0 11 2 C11.6875 4.125 11.6875 4.125 12 6 C10.56445975 6.50559908 9.1264798 7.0042749 7.6875 7.5 C6.48673828 7.91765625 6.48673828 7.91765625 5.26171875 8.34375 C3 9 3 9 0 9 C0 6.03 0 3.06 0 0 Z " fill="#F2EFED" transform="translate(297,67)"/>
<path d="M0 0 C0.33 0.66 0.66 1.32 1 2 C-2.28989086 3.17171756 -5.58219102 4.33651088 -8.875 5.5 C-9.81214844 5.83386719 -10.74929688 6.16773438 -11.71484375 6.51171875 C-13.05869141 6.98544922 -13.05869141 6.98544922 -14.4296875 7.46875 C-15.25710449 7.76201172 -16.08452148 8.05527344 -16.93701172 8.35742188 C-19 9 -19 9 -21 9 C-21.66 7.68 -22.32 6.36 -23 5 C-19.54505894 3.96743263 -16.08559009 2.95095853 -12.625 1.9375 C-11.64015625 1.64294922 -10.6553125 1.34839844 -9.640625 1.04492188 C-8.69960938 0.77099609 -7.75859375 0.49707031 -6.7890625 0.21484375 C-5.91975098 -0.04176025 -5.05043945 -0.29836426 -4.15478516 -0.56274414 C-2 -1 -2 -1 0 0 Z " fill="#EFEAE9" transform="translate(379,166)"/>
<path d="M0 0 C0.33 0 0.66 0 1 0 C1.66898955 14.64343786 1.66898955 14.64343786 -2 21 C-2.99 21.33 -3.98 21.66 -5 22 C-4.65259661 14.14868332 -2.71548094 7.35074375 0 0 Z " fill="#F4F2F1" transform="translate(43,210)"/>
<path d="M0 0 C1.65 0 3.3 0 5 0 C6.47075246 4.41225737 7.36884358 7.48281619 6 12 C1.545 12.495 1.545 12.495 -3 13 C-1.6875 11 -1.6875 11 0 9 C0.99 9 1.98 9 3 9 C1.92598892 6.08482708 1.22189824 4.22189824 -1 2 C-0.67 1.34 -0.34 0.68 0 0 Z " fill="#5E3522" transform="translate(238,122)"/>
<path d="M0 0 C-0.66 0.66 -1.32 1.32 -2 2 C-2.99 1.67 -3.98 1.34 -5 1 C-4.67 2.32 -4.34 3.64 -4 5 C-6.10251861 5.67184618 -8.20707763 6.33730968 -10.3125 7 C-12.07013672 7.556875 -12.07013672 7.556875 -13.86328125 8.125 C-17 9 -17 9 -20 9 C-20 8.01 -20 7.02 -20 6 C-17.75157909 5.01706733 -15.50140453 4.03855534 -13.25 3.0625 C-12.61578125 2.78470703 -11.9815625 2.50691406 -11.328125 2.22070312 C-2.87072277 -1.43536138 -2.87072277 -1.43536138 0 0 Z " fill="#EDE9E7" transform="translate(122,162)"/>
<path d="M0 0 C0.33 0.99 0.66 1.98 1 3 C-15.70842825 11.81548975 -15.70842825 11.81548975 -24 13 C-21.20589272 10.7922064 -18.42538677 9.09458193 -15.234375 7.51953125 C-14.34492187 7.07802734 -13.45546875 6.63652344 -12.5390625 6.18164062 C-11.15847656 5.50391602 -11.15847656 5.50391602 -9.75 4.8125 C-8.81414062 4.34908203 -7.87828125 3.88566406 -6.9140625 3.40820312 C-4.6111434 2.26849316 -2.30643726 1.13256871 0 0 Z " fill="#DED6D2" transform="translate(74,278)"/>
<path d="M0 0 C5.18932894 0.253138 7.85430061 2.1110886 11.6796875 5.33203125 C13 7 13 7 13 11 C9.98042366 9.99347455 8.17869078 9.18410565 5.9375 6.875 C3.97029971 4.53638571 3.97029971 4.53638571 0 5 C0 3.35 0 1.7 0 0 Z " fill="#633B29" transform="translate(262,181)"/>
<path d="M0 0 C4.69398156 0.54434408 8.11231572 1.18892578 12.01171875 4.08203125 C11.68171875 5.07203125 11.35171875 6.06203125 11.01171875 7.08203125 C9.24060031 6.60391948 7.46983392 6.12450345 5.69921875 5.64453125 C4.71308594 5.37769531 3.72695312 5.11085938 2.7109375 4.8359375 C0.79654349 4.301237 -1.1026174 3.71058587 -2.98828125 3.08203125 C-3.31828125 4.40203125 -3.64828125 5.72203125 -3.98828125 7.08203125 C-4.11328125 4.70703125 -4.11328125 4.70703125 -3.98828125 2.08203125 C-1.98828125 0.08203125 -1.98828125 0.08203125 0 0 Z " fill="#653E2C" transform="translate(81.98828125,268.91796875)"/>
<path d="M0 0 C0.99 0 1.98 0 3 0 C3.027193 1.58323688 3.04648306 3.16661062 3.0625 4.75 C3.07410156 5.63171875 3.08570313 6.5134375 3.09765625 7.421875 C3.00826198 9.7818838 2.66912821 11.74498524 2 14 C1.01 14 0.02 14 -1 14 C-1.02694851 12.04174127 -1.04637218 10.08337774 -1.0625 8.125 C-1.07410156 7.03445312 -1.08570312 5.94390625 -1.09765625 4.8203125 C-1 2 -1 2 0 0 Z " fill="#6A4332" transform="translate(126,222)"/>
<path d="M0 0 C3.96 0 7.92 0 12 0 C12 0.99 12 1.98 12 3 C5.565 3.495 5.565 3.495 -1 4 C-0.67 2.68 -0.34 1.36 0 0 Z " fill="#653D2B" transform="translate(264,209)"/>
<path d="M0 0 C0.33 0.66 0.66 1.32 1 2 C-5.435 3.98 -5.435 3.98 -12 6 C-11.67 4.68 -11.34 3.36 -11 2 C-9.00390625 0.91796875 -9.00390625 0.91796875 -6.5625 0.1875 C-5.75941406 -0.06644531 -4.95632813 -0.32039062 -4.12890625 -0.58203125 C-2 -1 -2 -1 0 0 Z " fill="#E9E4E1" transform="translate(379,166)"/>
<path d="M0 0 C3.53391969 1.48171072 5.59930326 3.45548562 8.125 6.3125 C8.80820312 7.07175781 9.49140625 7.83101562 10.1953125 8.61328125 C12.00891715 11.01179303 13.02777353 13.16851568 14 16 C13.34 16 12.68 16 12 16 C10.64240067 14.32210126 9.36288195 12.58056912 8.125 10.8125 C5.51885776 7.11138164 2.86099884 3.5088932 0 0 Z " fill="#DED5D2" transform="translate(341,161)"/>
<path d="M0 0 C0 2.97 0 5.94 0 9 C-0.99 8.67 -1.98 8.34 -3 8 C-4.1875 4.4375 -4.1875 4.4375 -5 1 C-3 0 -3 0 0 0 Z " fill="#F0ECEB" transform="translate(438,152)"/>
<path d="M0 0 C2.39073445 3.82517513 2.55966552 7.59665524 3 12 C2.01 11.67 1.02 11.34 0 11 C-1.16461426 7.50615721 -1.13568319 4.66344611 -1 1 C-0.67 0.67 -0.34 0.34 0 0 Z " fill="#DDD4D0" transform="translate(418,100)"/>
<path d="M0 0 C0.33 0.99 0.66 1.98 1 3 C-1.3125 4.5625 -1.3125 4.5625 -4 6 C-4.99 5.67 -5.98 5.34 -7 5 C-4.87219421 2.65941363 -2.88437779 1.29299694 0 0 Z " fill="#EEEAE9" transform="translate(74,278)"/>
<path d="M0 0 C1.2077558 3.62326739 0.54311128 4.64146369 -1 8 C-1.99 8 -2.98 8 -4 8 C-4.33 7.34 -4.66 6.68 -5 6 C-3.78741495 2.76643985 -2.98715542 1.99143695 0 0 Z " fill="#5F3623" transform="translate(261,174)"/>
<path d="M0 0 C0.33 0.66 0.66 1.32 1 2 C-1.31 2.66 -3.62 3.32 -6 4 C-6 2.68 -6 1.36 -6 0 C-2.25 -1.125 -2.25 -1.125 0 0 Z " fill="#663F2D" transform="translate(238,124)"/>
<path d="M0 0 C0.66 0.33 1.32 0.66 2 1 C1.67 1.99 1.34 2.98 1 4 C-0.65 4.33 -2.3 4.66 -4 5 C-4 4.01 -4 3.02 -4 2 C-2.125 0.9375 -2.125 0.9375 0 0 Z " fill="#66402E" transform="translate(164,241)"/>
</svg>
