<?xml version="1.0" encoding="UTF-8"?>
<svg version="1.1" xmlns="http://www.w3.org/2000/svg" width="447" height="290">
<path d="M0 0 C0.82019623 0.0012085 1.64039246 0.00241699 2.48544312 0.00366211 C15.3880599 0.05520909 27.60476601 0.7511067 40.0625 4.375 C41.51269531 4.79362305 41.51269531 4.79362305 42.9921875 5.22070312 C58.30706915 9.76308931 72.83166423 15.29976476 86.0625 24.375 C89.95934869 27.05111167 89.95934869 27.05111167 94.0625 29.375 C94.0625 30.035 94.0625 30.695 94.0625 31.375 C94.866875 31.643125 95.67125 31.91125 96.5 32.1875 C97.345625 32.579375 98.19125 32.97125 99.0625 33.375 C99.3925 34.365 99.7225 35.355 100.0625 36.375 C100.61679687 36.64828125 101.17109375 36.9215625 101.7421875 37.203125 C120.21606727 46.53336731 133.28249491 73.41218753 139.7421875 92.04296875 C143.0855683 102.46487557 145.3893024 113.41455019 145.0625 124.375 C145.805 124.601875 146.5475 124.82875 147.3125 125.0625 C150.60868078 126.63567719 151.87938828 128.4876587 154.0625 131.375 C154.805 131.931875 155.5475 132.48875 156.3125 133.0625 C156.89 133.495625 157.4675 133.92875 158.0625 134.375 C158.0625 135.035 158.0625 135.695 158.0625 136.375 C158.68125 136.6225 159.3 136.87 159.9375 137.125 C162.41318687 138.58128639 163.01375002 139.75312506 164.0625 142.375 C164.7225 142.375 165.3825 142.375 166.0625 142.375 C166.0625 143.035 166.0625 143.695 166.0625 144.375 C167.0525 144.705 168.0425 145.035 169.0625 145.375 C170.49056385 147.68875194 171.78759467 149.98088469 173.0625 152.375 C173.73410156 153.50679687 174.40570313 154.63859375 175.09765625 155.8046875 C178.85044135 162.18225293 182.05781163 168.2231388 184.0625 175.375 C184.58075804 176.81343047 185.10166974 178.25090714 185.625 179.6875 C188.67370452 189.05707882 189.29077251 198.52836087 189.75 208.3125 C189.79850098 209.32006348 189.84700195 210.32762695 189.89697266 211.36572266 C189.93483887 212.32655762 189.97270508 213.28739258 190.01171875 214.27734375 C190.04612061 215.13835693 190.08052246 215.99937012 190.1159668 216.88647461 C190.05999393 219.49164092 189.64719918 221.84016877 189.0625 224.375 C190.0525 225.035 191.0425 225.695 192.0625 226.375 C192.32768132 230.55160573 192.38136422 233.41840734 191.0625 237.375 C182.21933194 239.65710789 171.81581003 238.69556562 163.0625 236.375 C161.48023109 236.01610788 159.89687137 235.66199368 158.3125 235.3125 C157.51328125 235.13589844 156.7140625 234.95929688 155.890625 234.77734375 C155.28734375 234.64457031 154.6840625 234.51179687 154.0625 234.375 C154.03671875 235.17421875 154.0109375 235.9734375 153.984375 236.796875 C153.42108083 247.70429853 150.94733827 257.127397 145.0625 266.375 C144.4025 266.375 143.7425 266.375 143.0625 266.375 C142.82917969 266.97054688 142.59585937 267.56609375 142.35546875 268.1796875 C140.73992468 270.92269585 139.11161677 271.89910014 136.375 273.5 C135.54613281 273.99757813 134.71726562 274.49515625 133.86328125 275.0078125 C122.85413943 280.38187057 107.63656834 280.13518352 96 276.75 C87.6698142 273.69920468 79.1010492 269.84942716 72.0625 264.375 C72.0625 263.715 72.0625 263.055 72.0625 262.375 C71.44375 262.08625 70.825 261.7975 70.1875 261.5 C67.46658665 260.05951646 66.03775536 258.34386965 64.125 255.9375 C62.25583923 253.50030206 62.25583923 253.50030206 60.65234375 252.03125 C54.20827057 245.31801406 49.0625 235.82620985 49.0625 226.375 C48.45021545 226.37722061 47.83793091 226.37944122 47.20709229 226.38172913 C40.78211048 226.40400864 34.35713982 226.41900029 27.93212891 226.42993164 C25.5405228 226.4349323 23.14891971 226.44173498 20.75732422 226.45043945 C17.3017502 226.46269326 13.84621693 226.46827114 10.390625 226.47265625 C8.81018402 226.48039818 8.81018402 226.48039818 7.19781494 226.48829651 C0.13877361 226.48881915 -6.93400601 226.33247904 -13.9375 225.375 C-14.2675 225.045 -14.5975 224.715 -14.9375 224.375 C-16.80894591 224.18903613 -18.68530304 224.0516224 -20.5625 223.9375 C-26.89861025 223.45589542 -32.32133266 222.52005371 -37.9375 219.375 C-37.9375 218.055 -37.9375 216.735 -37.9375 215.375 C-38.5975 215.375 -39.2575 215.375 -39.9375 215.375 C-39.855 216.179375 -39.7725 216.98375 -39.6875 217.8125 C-40.30001469 226.5408343 -46.08590233 235.31269896 -50.9375 242.375 C-51.5975 242.375 -52.2575 242.375 -52.9375 242.375 C-53.205625 242.973125 -53.47375 243.57125 -53.75 244.1875 C-54.96290244 246.42179397 -56.08245964 247.65737004 -57.9375 249.375 C-58.659375 250.15875 -59.38125 250.9425 -60.125 251.75 C-70.35177969 261.29499438 -83.31356682 265.5296065 -97.125 265.5 C-98.33542969 265.50257813 -99.54585937 265.50515625 -100.79296875 265.5078125 C-103.9375 265.375 -103.9375 265.375 -106.9375 264.375 C-106.9375 263.715 -106.9375 263.055 -106.9375 262.375 C-107.4840625 262.59671875 -108.030625 262.8184375 -108.59375 263.046875 C-111.93248753 263.51429825 -113.55015571 262.29077555 -116.4375 260.625 C-117.3759375 260.09390625 -118.314375 259.5628125 -119.28125 259.015625 C-121.62518048 257.56790323 -123.84698817 256.16968468 -125.9375 254.375 C-125.9375 253.715 -125.9375 253.055 -125.9375 252.375 C-126.55625 252.1275 -127.175 251.88 -127.8125 251.625 C-130.34108627 250.13759631 -130.65589004 248.93821991 -131.9375 246.375 C-133.9710948 245.10695434 -133.9710948 245.10695434 -135.9375 244.375 C-135.9375 243.715 -135.9375 243.055 -135.9375 242.375 C-136.515 242.16875 -137.0925 241.9625 -137.6875 241.75 C-144.52969524 237.56865847 -146.68570382 227.94261911 -149.1875 220.8125 C-149.82739018 217.87967 -150.01677783 215.62231505 -149.984375 212.66015625 C-149.97760742 211.85586182 -149.97083984 211.05156738 -149.96386719 210.22290039 C-149.95081543 209.3081897 -149.95081543 209.3081897 -149.9375 208.375 C-150.50775909 208.35216446 -151.07801819 208.32932892 -151.66555786 208.30580139 C-157.66923605 208.06495751 -163.67278411 207.82104055 -169.67626953 207.57543945 C-171.90866025 207.48450212 -174.14108169 207.39431538 -176.37353516 207.30493164 C-200.15684946 206.35168192 -200.15684946 206.35168192 -211.9375 205.375 C-211.9375 204.715 -211.9375 204.055 -211.9375 203.375 C-212.865625 203.560625 -213.79375 203.74625 -214.75 203.9375 C-217.9375 204.375 -217.9375 204.375 -220.9375 203.375 C-221.515 204.138125 -222.0925 204.90125 -222.6875 205.6875 C-224.68992855 208.07928965 -226.22969418 209.85185922 -228.9375 211.375 C-231.0625 210.9453125 -231.0625 210.9453125 -232.9375 210.375 C-233.27601178 207.68806278 -233.608436 205.00059711 -233.9375 202.3125 C-234.03289062 201.56033203 -234.12828125 200.80816406 -234.2265625 200.03320312 C-234.78321902 195.44078683 -235.03579028 191.0007865 -234.9375 186.375 C-235.9275 186.375 -236.9175 186.375 -237.9375 186.375 C-244.42150829 172.22807282 -245.00608365 157.2877157 -240.1328125 142.48046875 C-236.84992626 133.95140156 -232.45410046 125.68414821 -226.9375 118.375 C-226.2775 118.375 -225.6175 118.375 -224.9375 118.375 C-224.85113281 117.81425781 -224.76476562 117.25351563 -224.67578125 116.67578125 C-221.60531427 107.10697147 -211.18231657 101.77440805 -202.9375 97.375 C-201.30743777 96.36226963 -199.68217934 95.34175436 -198.0625 94.3125 C-189.29457679 89.0602175 -180.25681791 84.73083855 -169.9375 84.375 C-169.9375 83.715 -169.9375 83.055 -169.9375 82.375 C-164.95267459 80.93826543 -159.96444025 81.11141083 -154.8125 81.0625 C-153.31976563 81.01899414 -153.31976563 81.01899414 -151.796875 80.97460938 C-144.70073147 80.91439406 -139.31031208 82.2641887 -132.9375 85.375 C-132.6075 83.725 -132.2775 82.075 -131.9375 80.375 C-131.2775 80.375 -130.6175 80.375 -129.9375 80.375 C-129.545625 79.158125 -129.15375 77.94125 -128.75 76.6875 C-128.15083436 74.91496831 -127.54608687 73.1443191 -126.9375 71.375 C-126.5971875 70.37339844 -126.256875 69.37179688 -125.90625 68.33984375 C-122.93138147 60.06850321 -119.18494766 52.45268327 -113.9375 45.375 C-113.2775 45.375 -112.6175 45.375 -111.9375 45.375 C-111.69 44.818125 -111.4425 44.26125 -111.1875 43.6875 C-108.7875117 39.24752165 -106.43832086 36.55721617 -101.9375 34.375 C-101.215625 33.653125 -100.49375 32.93125 -99.75 32.1875 C-93.44946405 25.88696405 -86.78874307 21.52717266 -78.734375 17.734375 C-75.91907599 16.4237158 -75.91907599 16.4237158 -73.328125 14.765625 C-71.06678989 13.45020785 -69.44729208 12.9648684 -66.9375 12.375 C-65.62894838 11.96392704 -64.3243503 11.54011137 -63.0234375 11.10546875 C-54.9175517 8.44142401 -46.83750493 5.96105379 -38.5 4.125 C-37.81663574 3.97442139 -37.13327148 3.82384277 -36.42919922 3.66870117 C-34.26978199 3.21125854 -32.10522927 2.7912077 -29.9375 2.375 C-29.08841064 2.19694824 -28.23932129 2.01889648 -27.36450195 1.83544922 C-18.25136962 0.08283341 -9.24597201 -0.02518227 0 0 Z " fill="#FDFDFC" transform="translate(246.9375,7.625)"/>
<path d="M0 0 C0.82019623 0.0012085 1.64039246 0.00241699 2.48544312 0.00366211 C15.3880599 0.05520909 27.60476601 0.7511067 40.0625 4.375 C41.51269531 4.79362305 41.51269531 4.79362305 42.9921875 5.22070312 C58.30706915 9.76308931 72.83166423 15.29976476 86.0625 24.375 C89.95934869 27.05111167 89.95934869 27.05111167 94.0625 29.375 C94.0625 30.035 94.0625 30.695 94.0625 31.375 C94.866875 31.643125 95.67125 31.91125 96.5 32.1875 C97.345625 32.579375 98.19125 32.97125 99.0625 33.375 C99.3925 34.365 99.7225 35.355 100.0625 36.375 C100.61679687 36.64828125 101.17109375 36.9215625 101.7421875 37.203125 C120.21606727 46.53336731 133.28249491 73.41218753 139.7421875 92.04296875 C143.0855683 102.46487557 145.3893024 113.41455019 145.0625 124.375 C145.805 124.601875 146.5475 124.82875 147.3125 125.0625 C150.60868078 126.63567719 151.87938828 128.4876587 154.0625 131.375 C154.805 131.931875 155.5475 132.48875 156.3125 133.0625 C156.89 133.495625 157.4675 133.92875 158.0625 134.375 C158.0625 135.035 158.0625 135.695 158.0625 136.375 C158.68125 136.6225 159.3 136.87 159.9375 137.125 C162.41318687 138.58128639 163.01375002 139.75312506 164.0625 142.375 C164.7225 142.375 165.3825 142.375 166.0625 142.375 C166.0625 143.035 166.0625 143.695 166.0625 144.375 C167.0525 144.705 168.0425 145.035 169.0625 145.375 C170.49056385 147.68875194 171.78759467 149.98088469 173.0625 152.375 C173.73410156 153.50679687 174.40570313 154.63859375 175.09765625 155.8046875 C178.85044135 162.18225293 182.05781163 168.2231388 184.0625 175.375 C184.58075804 176.81343047 185.10166974 178.25090714 185.625 179.6875 C188.67370452 189.05707882 189.29077251 198.52836087 189.75 208.3125 C189.79850098 209.32006348 189.84700195 210.32762695 189.89697266 211.36572266 C189.93483887 212.32655762 189.97270508 213.28739258 190.01171875 214.27734375 C190.04612061 215.13835693 190.08052246 215.99937012 190.1159668 216.88647461 C190.05999393 219.49164092 189.64719918 221.84016877 189.0625 224.375 C190.0525 225.035 191.0425 225.695 192.0625 226.375 C192.32768132 230.55160573 192.38136422 233.41840734 191.0625 237.375 C182.21933194 239.65710789 171.81581003 238.69556562 163.0625 236.375 C161.48023109 236.01610788 159.89687137 235.66199368 158.3125 235.3125 C157.51328125 235.13589844 156.7140625 234.95929688 155.890625 234.77734375 C155.28734375 234.64457031 154.6840625 234.51179687 154.0625 234.375 C154.03671875 235.17421875 154.0109375 235.9734375 153.984375 236.796875 C153.42108083 247.70429853 150.94733827 257.127397 145.0625 266.375 C144.4025 266.375 143.7425 266.375 143.0625 266.375 C142.82917969 266.97054688 142.59585937 267.56609375 142.35546875 268.1796875 C140.73992468 270.92269585 139.11161677 271.89910014 136.375 273.5 C135.54613281 273.99757813 134.71726562 274.49515625 133.86328125 275.0078125 C122.85413943 280.38187057 107.63656834 280.13518352 96 276.75 C87.6698142 273.69920468 79.1010492 269.84942716 72.0625 264.375 C72.0625 263.715 72.0625 263.055 72.0625 262.375 C71.44375 262.08625 70.825 261.7975 70.1875 261.5 C67.46658665 260.05951646 66.03775536 258.34386965 64.125 255.9375 C62.25583923 253.50030206 62.25583923 253.50030206 60.65234375 252.03125 C54.20827057 245.31801406 49.0625 235.82620985 49.0625 226.375 C48.45021545 226.37722061 47.83793091 226.37944122 47.20709229 226.38172913 C40.78211048 226.40400864 34.35713982 226.41900029 27.93212891 226.42993164 C25.5405228 226.4349323 23.14891971 226.44173498 20.75732422 226.45043945 C17.3017502 226.46269326 13.84621693 226.46827114 10.390625 226.47265625 C8.81018402 226.48039818 8.81018402 226.48039818 7.19781494 226.48829651 C0.13877361 226.48881915 -6.93400601 226.33247904 -13.9375 225.375 C-14.2675 225.045 -14.5975 224.715 -14.9375 224.375 C-16.80894591 224.18903613 -18.68530304 224.0516224 -20.5625 223.9375 C-26.89861025 223.45589542 -32.32133266 222.52005371 -37.9375 219.375 C-37.9375 218.055 -37.9375 216.735 -37.9375 215.375 C-37.14472656 215.5090625 -36.35195312 215.643125 -35.53515625 215.78125 C-31.15212617 216.50461653 -26.76548644 217.1985101 -22.375 217.875 C-21.55708984 218.00519531 -20.73917969 218.13539063 -19.89648438 218.26953125 C-5.81212256 220.42630127 8.16478434 220.50282582 22.375 220.4375 C24.29101445 220.43247279 26.20703018 220.42791206 28.12304688 220.42382812 C32.76956353 220.41292424 37.41601721 220.39572757 42.0625 220.375 C42.0625 221.695 42.0625 223.015 42.0625 224.375 C44.3725 224.375 46.6825 224.375 49.0625 224.375 C49.08828125 223.55257812 49.1140625 222.73015625 49.140625 221.8828125 C49.70152692 210.84324294 52.19419035 201.4713766 60.0625 193.375 C70.98236903 184.14040209 82.3443214 179.59669346 96.0625 176.375 C96.98546875 176.14683594 97.9084375 175.91867188 98.859375 175.68359375 C108.89394443 173.39865198 117.88573481 173.30130771 127.0625 178.375 C130.24769901 180.50320588 133.32312174 182.68855658 136.0625 185.375 C136.0625 186.035 136.0625 186.695 136.0625 187.375 C137.0525 187.705 138.0425 188.035 139.0625 188.375 C140.49807347 190.39921865 141.73026415 192.34484117 142.9375 194.5 C143.28683594 195.1180249 143.63617188 195.7360498 143.99609375 196.37280273 C148.30578096 204.28549183 152.26408837 213.26378705 152.0625 222.375 C152.64950684 222.4174585 153.23651367 222.45991699 153.84130859 222.50366211 C160.62094328 223.07758891 167.07593094 224.36184569 173.6875 225.9375 C174.69167969 226.17146484 175.69585937 226.40542969 176.73046875 226.64648438 C179.17584854 227.21707299 181.61974069 227.79331433 184.0625 228.375 C184.0625 225.735 184.0625 223.095 184.0625 220.375 C183.4025 220.705 182.7425 221.035 182.0625 221.375 C176.50508978 221.81959282 171.86221451 221.22101467 167.0625 218.375 C161.8570299 213.65096066 159.25929557 209.98291875 158.875 202.9375 C159.05500383 199.51742731 159.72114817 197.46594116 161.0625 194.375 C164.52081586 194.34605453 167.97910072 194.32822 171.4375 194.3125 C172.42234375 194.30412109 173.4071875 194.29574219 174.421875 194.28710938 C175.83339844 194.28227539 175.83339844 194.28227539 177.2734375 194.27734375 C178.14274902 194.27210693 179.01206055 194.26687012 179.90771484 194.26147461 C182.0625 194.375 182.0625 194.375 184.0625 195.375 C183.629375 193.69470703 183.629375 193.69470703 183.1875 191.98046875 C182.81231309 190.50786011 182.43732335 189.03520122 182.0625 187.5625 C181.87171875 186.82451172 181.6809375 186.08652344 181.484375 185.32617188 C180.70987086 182.26964659 180.0625 179.54126522 180.0625 176.375 C179.175625 176.4575 178.28875 176.54 177.375 176.625 C173.1054437 176.30276934 171.97688151 175.5135647 169.0625 172.375 C165.18213974 166.73389824 163.90742644 161.86230672 163.5 155.0625 C162.53437407 145.34712071 156.77988918 140.76066625 150.0625 134.375 C149.50820313 133.60027344 148.95390625 132.82554687 148.3828125 132.02734375 C147.94710938 131.48207031 147.51140625 130.93679687 147.0625 130.375 C143.93663125 130.04102213 143.93663125 130.04102213 141.0625 130.375 C139.75335322 127.75670643 139.74998054 125.24101213 139.51904297 122.35888672 C136.93522037 91.28582389 122.97533473 66.11927446 101.0625 44.375 C100.29292969 43.60800781 99.52335938 42.84101562 98.73046875 42.05078125 C82.38540534 26.47792556 60.84480123 15.91278755 39.0625 10.375 C38.34594238 10.18035156 37.62938477 9.98570313 36.89111328 9.78515625 C24.70659982 6.56610931 12.71669658 6.00347422 0.1875 6 C-0.54981354 5.99809662 -1.28712708 5.99619324 -2.04678345 5.99423218 C-15.74248087 5.99823504 -29.03471929 7.36621472 -42.375 10.625 C-43.26405029 10.84115967 -44.15310059 11.05731934 -45.0690918 11.2800293 C-63.99573043 16.0452408 -81.83562174 23.88358927 -96.9375 36.375 C-97.79859375 37.04917969 -98.6596875 37.72335938 -99.546875 38.41796875 C-109.99114224 47.06205949 -117.91875108 59.43039823 -121.9375 72.375 C-121.9375 73.365 -121.9375 74.355 -121.9375 75.375 C-117.4825 74.88 -117.4825 74.88 -112.9375 74.375 C-112.9375 73.385 -112.9375 72.395 -112.9375 71.375 C-114.4225 70.88 -114.4225 70.88 -115.9375 70.375 C-115.9375 69.715 -115.9375 69.055 -115.9375 68.375 C-106.79651257 62.92556519 -98.2450993 61.80237044 -87.59765625 64.09375 C-80.93870825 66.17624572 -74.98421504 68.69355266 -70.4375 74.1875 C-69.61094947 77.80365858 -69.72958805 80.90772943 -70.9375 84.375 C-72.5909682 86.67934443 -74.36792583 88.67842985 -76.34375 90.7109375 C-78.02353378 92.30066445 -78.02353378 92.30066445 -78.9375 94.375 C-71.56214156 97.05122181 -64.94471114 97.85924872 -57.125 97.75 C-55.54549561 97.7336853 -55.54549561 97.7336853 -53.93408203 97.71704102 C-41.22300326 97.75118354 -41.22300326 97.75118354 -29.90234375 92.79296875 C-20.86683996 82.98848591 -22.48095804 68.77334095 -22.9375 56.375 C-23.45595723 47.88084952 -24.4067185 38.77823775 -28.9375 31.375 C-32.95269188 27.85969145 -36.38319794 27.13476974 -41.69873047 27.20996094 C-45.58908489 27.4967526 -49.24948106 28.46520054 -53 29.5 C-53.82564453 29.72373291 -54.65128906 29.94746582 -55.50195312 30.17797852 C-72.81107253 35.02072848 -92.05165987 42.04950935 -102.0625 57.9375 C-102.68125 59.071875 -103.3 60.20625 -103.9375 61.375 C-105.4225 60.88 -105.4225 60.88 -106.9375 60.375 C-102.91312997 48.5743733 -90.62433117 39.53710357 -79.83227539 34.17480469 C-72.08254184 30.48894535 -64.26757111 27.49944766 -55.9375 25.375 C-55.09058594 25.15070312 -54.24367188 24.92640625 -53.37109375 24.6953125 C-45.60364522 22.87501156 -36.77443944 21.6248171 -29.375 25 C-20.00930329 34.12555065 -19.02242933 46.37318822 -18.734375 58.80859375 C-18.71333078 61.14318661 -18.69781326 63.47783508 -18.6875 65.8125 C-18.666875 66.97587891 -18.64625 68.13925781 -18.625 69.33789062 C-18.58201469 78.88600339 -19.78265551 87.04159284 -25.4609375 94.90234375 C-32.98860546 102.41009725 -46.06061588 102.66199633 -56.125 102.6875 C-65.49365037 102.58418756 -74.64954378 102.14057483 -82.9375 97.375 C-85.81115932 96.4625391 -88.13364516 96.36089685 -91.125 96.5625 C-97.5242951 96.63641925 -102.72631991 94.31652398 -107.5 90.125 C-107.974375 89.5475 -108.44875 88.97 -108.9375 88.375 C-109.9275 89.365 -109.9275 89.365 -110.9375 90.375 C-112.81689453 90.60205078 -112.81689453 90.60205078 -115.0703125 90.5703125 C-115.87597656 90.56386719 -116.68164062 90.55742188 -117.51171875 90.55078125 C-118.35347656 90.53402344 -119.19523437 90.51726562 -120.0625 90.5 C-120.91199219 90.49097656 -121.76148437 90.48195313 -122.63671875 90.47265625 C-124.73709884 90.44905647 -126.83733444 90.41318483 -128.9375 90.375 C-129.2675 89.055 -129.5975 87.735 -129.9375 86.375 C-129.2775 86.375 -128.6175 86.375 -127.9375 86.375 C-128.2675 85.715 -128.5975 85.055 -128.9375 84.375 C-130.4225 85.365 -130.4225 85.365 -131.9375 86.375 C-133.0625 82.625 -133.0625 82.625 -131.9375 80.375 C-131.2775 80.375 -130.6175 80.375 -129.9375 80.375 C-129.545625 79.158125 -129.15375 77.94125 -128.75 76.6875 C-128.15083436 74.91496831 -127.54608687 73.1443191 -126.9375 71.375 C-126.5971875 70.37339844 -126.256875 69.37179688 -125.90625 68.33984375 C-122.93138147 60.06850321 -119.18494766 52.45268327 -113.9375 45.375 C-113.2775 45.375 -112.6175 45.375 -111.9375 45.375 C-111.69 44.818125 -111.4425 44.26125 -111.1875 43.6875 C-108.7875117 39.24752165 -106.43832086 36.55721617 -101.9375 34.375 C-101.215625 33.653125 -100.49375 32.93125 -99.75 32.1875 C-93.44946405 25.88696405 -86.78874307 21.52717266 -78.734375 17.734375 C-75.91907599 16.4237158 -75.91907599 16.4237158 -73.328125 14.765625 C-71.06678989 13.45020785 -69.44729208 12.9648684 -66.9375 12.375 C-65.62894838 11.96392704 -64.3243503 11.54011137 -63.0234375 11.10546875 C-54.9175517 8.44142401 -46.83750493 5.96105379 -38.5 4.125 C-37.81663574 3.97442139 -37.13327148 3.82384277 -36.42919922 3.66870117 C-34.26978199 3.21125854 -32.10522927 2.7912077 -29.9375 2.375 C-29.08841064 2.19694824 -28.23932129 2.01889648 -27.36450195 1.83544922 C-18.25136962 0.08283341 -9.24597201 -0.02518227 0 0 Z " fill="#542D1B" transform="translate(246.9375,7.625)"/>
<path d="M0 0 C1.00353516 -0.02900391 2.00707031 -0.05800781 3.04101562 -0.08789062 C9.86561253 -0.14561331 14.83750571 0.98930264 20.8125 4.3125 C20.8125 5.3025 20.8125 6.2925 20.8125 7.3125 C19.95269531 7.168125 19.09289062 7.02375 18.20703125 6.875 C-0.26322694 3.97454506 -16.0873113 5.4464132 -33.1875 13.3125 C-34.404375 13.704375 -35.62125 14.09625 -36.875 14.5 C-39.37594743 16.04481129 -39.37594743 16.04481129 -39.55078125 18.3671875 C-39.6451012 20.09728478 -39.73188097 21.82780393 -39.8125 23.55859375 C-40.90333563 31.56941789 -46.90285706 37.67439398 -52.90625 42.6171875 C-60.01677257 47.90137722 -65.31695579 48.89952131 -74.1875 48.3125 C-74.5175 49.6325 -74.8475 50.9525 -75.1875 52.3125 C-74.28 52.56 -73.3725 52.8075 -72.4375 53.0625 C-68.21910221 54.68496069 -66.1484356 56.54235547 -64 60.5 C-61.52272225 69.07519222 -60.21144932 81.00136486 -63.375 89.4375 C-65.81821962 93.31295182 -68.17197758 94.71329063 -72.5 96 C-73.056875 96.103125 -73.61375 96.20625 -74.1875 96.3125 C-74.1875 97.3025 -74.1875 98.2925 -74.1875 99.3125 C-73.05441406 99.31507813 -71.92132813 99.31765625 -70.75390625 99.3203125 C-55.98546207 99.58935775 -41.8990043 102.13918378 -27.44921875 104.9375 C-17.95817691 106.76416785 -8.72918651 107.54533185 0.91796875 107.91796875 C1.77777344 107.95535156 2.63757813 107.99273437 3.5234375 108.03125 C4.29993652 108.06154297 5.07643555 108.09183594 5.87646484 108.12304688 C7.8125 108.3125 7.8125 108.3125 9.8125 109.3125 C10.01875 108.4875 10.225 107.6625 10.4375 106.8125 C16.20359484 92.13516768 30.11622938 83.23112185 43.828125 76.92578125 C55.71658812 72.4909488 72.76625944 71.72280573 84.4921875 77.0390625 C85.25789062 77.45929688 86.02359375 77.87953125 86.8125 78.3125 C88.14667969 79.03566406 88.14667969 79.03566406 89.5078125 79.7734375 C101.94706786 86.91784947 109.89669192 96.76765542 114.8125 110.3125 C115.98052866 115.02111555 115.88435399 119.49828261 115.8125 124.3125 C116.46951904 124.29654785 117.12653809 124.2805957 117.8034668 124.26416016 C124.86010762 124.16840523 131.63690573 124.75708485 138.625 125.6875 C140.84347622 125.96573341 143.06223324 126.24173604 145.28125 126.515625 C146.38210937 126.65162109 147.48296875 126.78761719 148.6171875 126.92773438 C166.31397185 129.05870413 184.00131889 129.83090508 201.8125 130.3125 C201.8125 131.6325 201.8125 132.9525 201.8125 134.3125 C180.55931743 134.67796478 159.91126651 134.23645997 138.8125 131.3125 C137.28447754 131.10439697 137.28447754 131.10439697 135.72558594 130.89208984 C120.07211673 128.73237224 120.07211673 128.73237224 115.8125 127.3125 C115.78671875 128.14652344 115.7609375 128.98054687 115.734375 129.83984375 C115.36127038 137.24257863 114.42943848 142.85368129 110.8125 149.3125 C110.235 150.3746875 109.6575 151.436875 109.0625 152.53125 C105.58639752 158.73029942 105.58639752 158.73029942 103.8125 161.3125 C103.1525 161.3125 102.4925 161.3125 101.8125 161.3125 C101.544375 161.910625 101.27625 162.50875 101 163.125 C99.78709756 165.35929397 98.66754036 166.59487004 96.8125 168.3125 C96.090625 169.09625 95.36875 169.88 94.625 170.6875 C84.39822031 180.23249438 71.43643318 184.4671065 57.625 184.4375 C56.41457031 184.44007813 55.20414063 184.44265625 53.95703125 184.4453125 C50.8125 184.3125 50.8125 184.3125 47.8125 183.3125 C47.8125 182.6525 47.8125 181.9925 47.8125 181.3125 C47.2659375 181.53421875 46.719375 181.7559375 46.15625 181.984375 C42.81751247 182.45179825 41.19984429 181.22827555 38.3125 179.5625 C37.3740625 179.03140625 36.435625 178.5003125 35.46875 177.953125 C33.12481952 176.50540323 30.90301183 175.10718468 28.8125 173.3125 C28.8125 172.6525 28.8125 171.9925 28.8125 171.3125 C28.19375 171.065 27.575 170.8175 26.9375 170.5625 C24.40891373 169.07509631 24.09410996 167.87571991 22.8125 165.3125 C20.7789052 164.04445434 20.7789052 164.04445434 18.8125 163.3125 C18.8125 162.6525 18.8125 161.9925 18.8125 161.3125 C18.235 161.10625 17.6575 160.9 17.0625 160.6875 C10.22030476 156.50615847 8.06429618 146.88011911 5.5625 139.75 C4.92260982 136.81717 4.73322217 134.55981505 4.765625 131.59765625 C4.77239258 130.79336182 4.77916016 129.98906738 4.78613281 129.16040039 C4.79918457 128.2456897 4.79918457 128.2456897 4.8125 127.3125 C4.24224091 127.28966446 3.67198181 127.26682892 3.08444214 127.24330139 C-2.91923605 127.00245751 -8.92278411 126.75854055 -14.92626953 126.51293945 C-17.15866025 126.42200212 -19.39108169 126.33181538 -21.62353516 126.24243164 C-45.40684946 125.28918192 -45.40684946 125.28918192 -57.1875 124.3125 C-57.1875 123.6525 -57.1875 122.9925 -57.1875 122.3125 C-58.115625 122.498125 -59.04375 122.68375 -60 122.875 C-63.1875 123.3125 -63.1875 123.3125 -66.1875 122.3125 C-66.765 123.075625 -67.3425 123.83875 -67.9375 124.625 C-69.93992855 127.01678965 -71.47969418 128.78935922 -74.1875 130.3125 C-76.3125 129.8828125 -76.3125 129.8828125 -78.1875 129.3125 C-78.52601178 126.62556278 -78.858436 123.93809711 -79.1875 121.25 C-79.28289062 120.49783203 -79.37828125 119.74566406 -79.4765625 118.97070312 C-80.03321902 114.37828683 -80.28579028 109.9382865 -80.1875 105.3125 C-81.1775 105.3125 -82.1675 105.3125 -83.1875 105.3125 C-89.67150829 91.16557282 -90.25608365 76.2252157 -85.3828125 61.41796875 C-82.09992626 52.88890156 -77.70410046 44.62164821 -72.1875 37.3125 C-71.5275 37.3125 -70.8675 37.3125 -70.1875 37.3125 C-70.10113281 36.75175781 -70.01476562 36.19101563 -69.92578125 35.61328125 C-66.85531427 26.04447147 -56.43231657 20.71190805 -48.1875 16.3125 C-46.55743777 15.29976963 -44.93217934 14.27925436 -43.3125 13.25 C-34.54457679 7.9977175 -25.50681791 3.66833855 -15.1875 3.3125 C-15.1875 2.6525 -15.1875 1.9925 -15.1875 1.3125 C-10.18483767 -0.13126036 -5.17049702 0.04887048 0 0 Z " fill="#FCFBFB" transform="translate(92.1875,88.6875)"/>
<path d="M0 0 C1.37671875 0.01353516 1.37671875 0.01353516 2.78125 0.02734375 C5.02094838 0.05067394 7.26051041 0.08653548 9.5 0.125 C9.17 4.745 8.84 9.365 8.5 14.125 C9.16 14.125 9.82 14.125 10.5 14.125 C11.16 10.165 11.82 6.205 12.5 2.125 C17.25215348 3.0754307 18.37810155 3.43239203 21.75 6.4375 C22.43578125 7.03175781 23.1215625 7.62601563 23.828125 8.23828125 C25.62629995 10.26753008 26.25186169 11.43959205 26.5 14.125 C25.0625 16.25 25.0625 16.25 23.5 18.125 C23.5 18.785 23.5 19.445 23.5 20.125 C24.16 20.125 24.82 20.125 25.5 20.125 C25.974375 19.465 26.44875 18.805 26.9375 18.125 C27.453125 17.465 27.96875 16.805 28.5 16.125 C29.49 16.125 30.48 16.125 31.5 16.125 C31.83 14.805 32.16 13.485 32.5 12.125 C38.96012473 18.046781 43.27743427 26.15697419 44.375 34.9375 C44.41625 35.989375 44.4575 37.04125 44.5 38.125 C43.283125 38.5375 42.06625 38.95 40.8125 39.375 C37.13664765 40.7526285 34.35211293 42.3620156 31.5 45.125 C31.5 45.785 31.5 46.445 31.5 47.125 C32.16 47.125 32.82 47.125 33.5 47.125 C33.93957031 46.67511719 34.37914062 46.22523438 34.83203125 45.76171875 C36.80357075 43.82711676 38.64942285 43.00422808 41.1875 41.9375 C41.99574219 41.59332031 42.80398438 41.24914062 43.63671875 40.89453125 C44.25160156 40.64058594 44.86648438 40.38664062 45.5 40.125 C48.65676187 51.29386391 47.66700326 65.79099349 42.5 76.125 C35.7142064 75.57636137 29.14990964 74.58232062 22.5 73.125 C25.1983516 76.70608372 28.43857982 76.9939007 32.6875 77.8125 C33.95980469 78.06386719 35.23210937 78.31523437 36.54296875 78.57421875 C37.51878906 78.75597656 38.49460937 78.93773437 39.5 79.125 C36.66974642 85.4386426 31.69675505 88.83769242 25.4375 91.5 C18.0555347 94.11724224 18.0555347 94.11724224 14.5 93.125 C11.10194527 89.3033151 9.5 86.27066125 9.5 81.125 C8.51 81.125 7.52 81.125 6.5 81.125 C7.62795963 85.23399581 8.83510818 89.20061214 10.5 93.125 C5.35309491 93.31685122 1.07445506 92.72135341 -3.875 91.3125 C-5.09960938 90.97605469 -6.32421875 90.63960938 -7.5859375 90.29296875 C-8.54757812 89.90753906 -9.50921875 89.52210938 -10.5 89.125 C-11.5 86.125 -11.5 86.125 -10.06640625 82.76953125 C-9.40851193 81.4869696 -8.74010257 80.20975943 -8.0625 78.9375 C-7.72412109 78.28330078 -7.38574219 77.62910156 -7.03710938 76.95507812 C-6.20030902 75.34040701 -5.35130254 73.73207237 -4.5 72.125 C-5.82 72.125 -7.14 72.125 -8.5 72.125 C-8.68175781 72.71667969 -8.86351562 73.30835938 -9.05078125 73.91796875 C-10.45667057 78.337508 -11.87527181 82.25040125 -14.5 86.125 C-21.92712182 83.36598116 -28.17555458 78.96471434 -33.5 73.125 C-32.23046875 71.66015625 -30.9609375 70.1953125 -29.69140625 68.73046875 C-28.29128769 67.01787029 -28.29128769 67.01787029 -27.5 64.125 C-30.14 66.435 -32.78 68.745 -35.5 71.125 C-40.3245905 66.86800838 -43.55863995 61.83588806 -46.5 56.125 C-46.5 55.465 -46.5 54.805 -46.5 54.125 C-43.2 54.125 -39.9 54.125 -36.5 54.125 C-36.5 53.135 -36.5 52.145 -36.5 51.125 C-40.46 50.795 -44.42 50.465 -48.5 50.125 C-49.59506492 46.83980525 -49.59960608 44.38836585 -49.5625 40.9375 C-49.55347656 39.85082031 -49.54445313 38.76414063 -49.53515625 37.64453125 C-49.52355469 36.81308594 -49.51195312 35.98164063 -49.5 35.125 C-46.53 35.455 -43.56 35.785 -40.5 36.125 C-40.5 35.135 -40.5 34.145 -40.5 33.125 C-41.44875 33.145625 -42.3975 33.16625 -43.375 33.1875 C-46.5 33.125 -46.5 33.125 -48.5 32.125 C-46.8833652 26.09219209 -45.33290538 22.174191 -40.5 18.125 C-38.19 20.105 -35.88 22.085 -33.5 24.125 C-34.70632452 20.69161484 -35.88477184 18.62135415 -38.5 16.125 C-38.5 15.465 -38.5 14.805 -38.5 14.125 C-27.02234851 4.43004757 -14.89122209 -0.28137484 0 0 Z " fill="#FCFBFB" transform="translate(349.5,187.875)"/>
<path d="M0 0 C1.00353516 -0.02900391 2.00707031 -0.05800781 3.04101562 -0.08789062 C9.86561253 -0.14561331 14.83750571 0.98930264 20.8125 4.3125 C20.8125 5.3025 20.8125 6.2925 20.8125 7.3125 C19.95269531 7.168125 19.09289062 7.02375 18.20703125 6.875 C-0.26322694 3.97454506 -16.0873113 5.4464132 -33.1875 13.3125 C-34.404375 13.704375 -35.62125 14.09625 -36.875 14.5 C-39.37594743 16.04481129 -39.37594743 16.04481129 -39.55078125 18.3671875 C-39.6451012 20.09728478 -39.73188097 21.82780393 -39.8125 23.55859375 C-40.90333563 31.56941789 -46.90285706 37.67439398 -52.90625 42.6171875 C-60.01677257 47.90137722 -65.31695579 48.89952131 -74.1875 48.3125 C-74.5175 49.6325 -74.8475 50.9525 -75.1875 52.3125 C-74.28 52.56 -73.3725 52.8075 -72.4375 53.0625 C-68.21910221 54.68496069 -66.1484356 56.54235547 -64 60.5 C-61.52272225 69.07519222 -60.21144932 81.00136486 -63.375 89.4375 C-65.81821962 93.31295182 -68.17197758 94.71329063 -72.5 96 C-73.056875 96.103125 -73.61375 96.20625 -74.1875 96.3125 C-74.1875 97.3025 -74.1875 98.2925 -74.1875 99.3125 C-73.05441406 99.31507813 -71.92132813 99.31765625 -70.75390625 99.3203125 C-55.98546207 99.58935775 -41.8990043 102.13918378 -27.44921875 104.9375 C-17.95817691 106.76416785 -8.72918651 107.54533185 0.91796875 107.91796875 C1.77777344 107.95535156 2.63757813 107.99273437 3.5234375 108.03125 C4.29993652 108.06154297 5.07643555 108.09183594 5.87646484 108.12304688 C7.8125 108.3125 7.8125 108.3125 9.8125 109.3125 C10.01875 108.4875 10.225 107.6625 10.4375 106.8125 C16.20359484 92.13516768 30.11622938 83.23112185 43.828125 76.92578125 C55.71658812 72.4909488 72.76625944 71.72280573 84.4921875 77.0390625 C85.25789062 77.45929688 86.02359375 77.87953125 86.8125 78.3125 C88.14667969 79.03566406 88.14667969 79.03566406 89.5078125 79.7734375 C101.94706786 86.91784947 109.89669192 96.76765542 114.8125 110.3125 C115.98052866 115.02111555 115.88435399 119.49828261 115.8125 124.3125 C116.46951904 124.29654785 117.12653809 124.2805957 117.8034668 124.26416016 C124.86010762 124.16840523 131.63690573 124.75708485 138.625 125.6875 C140.84347622 125.96573341 143.06223324 126.24173604 145.28125 126.515625 C146.38210937 126.65162109 147.48296875 126.78761719 148.6171875 126.92773438 C166.31397185 129.05870413 184.00131889 129.83090508 201.8125 130.3125 C201.8125 131.6325 201.8125 132.9525 201.8125 134.3125 C180.55931743 134.67796478 159.91126651 134.23645997 138.8125 131.3125 C137.28447754 131.10439697 137.28447754 131.10439697 135.72558594 130.89208984 C120.07211673 128.73237224 120.07211673 128.73237224 115.8125 127.3125 C115.78671875 128.14652344 115.7609375 128.98054687 115.734375 129.83984375 C115.36127038 137.24257863 114.42943848 142.85368129 110.8125 149.3125 C110.235 150.3746875 109.6575 151.436875 109.0625 152.53125 C105.58639752 158.73029942 105.58639752 158.73029942 103.8125 161.3125 C103.1525 161.3125 102.4925 161.3125 101.8125 161.3125 C101.544375 161.910625 101.27625 162.50875 101 163.125 C99.78709756 165.35929397 98.66754036 166.59487004 96.8125 168.3125 C96.090625 169.09625 95.36875 169.88 94.625 170.6875 C84.39822031 180.23249438 71.43643318 184.4671065 57.625 184.4375 C56.41457031 184.44007813 55.20414063 184.44265625 53.95703125 184.4453125 C50.8125 184.3125 50.8125 184.3125 47.8125 183.3125 C47.8125 182.6525 47.8125 181.9925 47.8125 181.3125 C47.2659375 181.53421875 46.719375 181.7559375 46.15625 181.984375 C42.81751247 182.45179825 41.19984429 181.22827555 38.3125 179.5625 C37.3740625 179.03140625 36.435625 178.5003125 35.46875 177.953125 C33.12481952 176.50540323 30.90301183 175.10718468 28.8125 173.3125 C28.8125 172.6525 28.8125 171.9925 28.8125 171.3125 C28.19375 171.065 27.575 170.8175 26.9375 170.5625 C24.40891373 169.07509631 24.09410996 167.87571991 22.8125 165.3125 C20.7789052 164.04445434 20.7789052 164.04445434 18.8125 163.3125 C18.8125 162.6525 18.8125 161.9925 18.8125 161.3125 C18.235 161.10625 17.6575 160.9 17.0625 160.6875 C10.22030476 156.50615847 8.06429618 146.88011911 5.5625 139.75 C4.92260982 136.81717 4.73322217 134.55981505 4.765625 131.59765625 C4.77239258 130.79336182 4.77916016 129.98906738 4.78613281 129.16040039 C4.79918457 128.2456897 4.79918457 128.2456897 4.8125 127.3125 C4.24224091 127.28966446 3.67198181 127.26682892 3.08444214 127.24330139 C-2.91923605 127.00245751 -8.92278411 126.75854055 -14.92626953 126.51293945 C-17.15866025 126.42200212 -19.39108169 126.33181538 -21.62353516 126.24243164 C-45.40684946 125.28918192 -45.40684946 125.28918192 -57.1875 124.3125 C-57.1875 123.6525 -57.1875 122.9925 -57.1875 122.3125 C-58.115625 122.498125 -59.04375 122.68375 -60 122.875 C-63.1875 123.3125 -63.1875 123.3125 -66.1875 122.3125 C-66.765 123.075625 -67.3425 123.83875 -67.9375 124.625 C-69.93992855 127.01678965 -71.47969418 128.78935922 -74.1875 130.3125 C-76.3125 129.8828125 -76.3125 129.8828125 -78.1875 129.3125 C-78.52601178 126.62556278 -78.858436 123.93809711 -79.1875 121.25 C-79.28289062 120.49783203 -79.37828125 119.74566406 -79.4765625 118.97070312 C-80.03321902 114.37828683 -80.28579028 109.9382865 -80.1875 105.3125 C-81.1775 105.3125 -82.1675 105.3125 -83.1875 105.3125 C-89.67150829 91.16557282 -90.25608365 76.2252157 -85.3828125 61.41796875 C-82.09992626 52.88890156 -77.70410046 44.62164821 -72.1875 37.3125 C-71.5275 37.3125 -70.8675 37.3125 -70.1875 37.3125 C-70.10113281 36.75175781 -70.01476562 36.19101563 -69.92578125 35.61328125 C-66.85531427 26.04447147 -56.43231657 20.71190805 -48.1875 16.3125 C-46.55743777 15.29976963 -44.93217934 14.27925436 -43.3125 13.25 C-34.54457679 7.9977175 -25.50681791 3.66833855 -15.1875 3.3125 C-15.1875 2.6525 -15.1875 1.9925 -15.1875 1.3125 C-10.18483767 -0.13126036 -5.17049702 0.04887048 0 0 Z M30.8125 90.3125 C32.23338605 93.48818033 33.97658623 95.80648464 36.3125 98.375 C38.37065561 100.64682007 40.10388171 102.74957257 41.8125 105.3125 C36.53908399 103.87429563 33.31858991 100.3086885 29.8125 96.3125 C29.4825 95.6525 29.1525 94.9925 28.8125 94.3125 C24.62445999 95.81613551 23.31070936 98.33221852 21.1875 102.125 C20.59710938 103.16269531 20.00671875 104.20039063 19.3984375 105.26953125 C17.14275434 109.59755387 15.8125 112.38108844 15.8125 117.3125 C16.4725 117.3125 17.1325 117.3125 17.8125 117.3125 C17.8125 118.3025 17.8125 119.2925 17.8125 120.3125 C20.4525 120.6425 23.0925 120.9725 25.8125 121.3125 C25.8125 122.3025 25.8125 123.2925 25.8125 124.3125 C21.8525 123.9825 17.8925 123.6525 13.8125 123.3125 C13.75795591 125.66698675 13.7185721 128.02017875 13.6875 130.375 C13.66429688 131.68597656 13.64109375 132.99695313 13.6171875 134.34765625 C13.86411593 139.36030333 15.23747848 143.58743545 16.8125 148.3125 C19.8956351 147.11350302 22.87529492 145.83549523 25.8125 144.3125 C25.8125 145.3025 25.8125 146.2925 25.8125 147.3125 C25.214375 147.56 24.61625 147.8075 24 148.0625 C21.51767913 149.48096907 20.44921965 151.00514738 18.8125 153.3125 C22.88772139 159.75644383 26.94270578 165.63865353 33.8125 169.3125 C34.8025 169.3125 35.7925 169.3125 36.8125 169.3125 C38.17508585 167.57204103 38.17508585 167.57204103 39.3125 165.375 C41.48852592 161.42049136 41.48852592 161.42049136 44.8125 160.3125 C44.8125 161.6325 44.8125 162.9525 44.8125 164.3125 C44.1525 164.3125 43.4925 164.3125 42.8125 164.3125 C40.77080515 167.21798882 39.8125 168.71392046 39.8125 172.3125 C48.27227188 176.17982429 55.57444702 176.79800351 64.8125 176.3125 C64.8125 172.6825 64.8125 169.0525 64.8125 165.3125 C65.8025 164.9825 66.7925 164.6525 67.8125 164.3125 C67.585625 165.364375 67.35875 166.41625 67.125 167.5 C66.7790021 171.72117437 67.22850462 173.0585799 69.8125 176.3125 C71.79442772 177.57045503 71.79442772 177.57045503 74.0625 176.78125 C82.94281549 173.65295704 91.44695067 169.36082399 96.8125 161.3125 C93.8425 161.3125 90.8725 161.3125 87.8125 161.3125 C87.8125 160.3225 87.8125 159.3325 87.8125 158.3125 C88.63234375 158.37050781 89.4521875 158.42851562 90.296875 158.48828125 C96.69561505 158.99034188 96.69561505 158.99034188 102.25 156.4375 C102.765625 155.40625 103.28125 154.375 103.8125 153.3125 C104.21726562 152.59578125 104.62203125 151.8790625 105.0390625 151.140625 C112.03418327 138.29578336 114.18450737 123.88769953 110.96875 109.55078125 C107.29602868 99.06615451 100.49065006 89.9518836 90.8125 84.3125 C88.16594157 83.12064235 85.58321566 82.20308718 82.8125 81.3125 C82.54695313 81.97636719 82.28140625 82.64023438 82.0078125 83.32421875 C80.94270833 85.98697917 79.87760417 88.64973958 78.8125 91.3125 C78.31363281 92.68341797 78.31363281 92.68341797 77.8046875 94.08203125 C76.8125 96.3125 76.8125 96.3125 74.8125 97.3125 C75.08964844 96.42046875 75.36679688 95.5284375 75.65234375 94.609375 C76.01457031 93.43890625 76.37679687 92.2684375 76.75 91.0625 C77.10964844 89.90234375 77.46929687 88.7421875 77.83984375 87.546875 C78.56316637 85.14160942 79.23792411 82.75595956 79.8125 80.3125 C72.93247829 77.69153935 66.09073961 78.13079638 58.8125 78.3125 C58.60836639 84.05092251 58.54108546 88.91789047 60.8125 94.3125 C58.05027157 91.92693908 56.82591183 89.82046403 55.8125 86.3125 C55.65737784 83.62037998 55.72093784 81.01358374 55.8125 78.3125 C46.13645158 78.3125 37.85880495 84.13808632 30.8125 90.3125 Z " fill="#552D1B" transform="translate(92.1875,88.6875)"/>
<path d="M0 0 C6.05012111 4.83080687 7.65671272 10.82880492 8.6328125 18.34765625 C8.80585595 19.91830735 8.96960498 21.49000476 9.125 23.0625 C9.2084668 23.89233398 9.29193359 24.72216797 9.37792969 25.57714844 C11.37842947 46.78244613 11.37842947 46.78244613 8 54 C1.46901892 61.02080466 -7.97636782 63.76882512 -17.37158203 64.12939453 C-19.17151611 64.13108643 -19.17151611 64.13108643 -21.0078125 64.1328125 C-22.32394531 64.13410156 -23.64007813 64.13539062 -24.99609375 64.13671875 C-25.67397949 64.13462402 -26.35186523 64.1325293 -27.05029297 64.13037109 C-29.12605026 64.12499728 -31.20159294 64.1303439 -33.27734375 64.13671875 C-34.59089844 64.13542969 -35.90445312 64.13414063 -37.2578125 64.1328125 C-38.4555127 64.13168457 -39.65321289 64.13055664 -40.88720703 64.12939453 C-45.59590445 63.93366044 -45.59590445 63.93366044 -48 63 C-49.125 60.62109375 -49.125 60.62109375 -50 57.4375 C-50.49306641 55.66439453 -50.49306641 55.66439453 -50.99609375 53.85546875 C-51.32738281 52.58316406 -51.65867188 51.31085938 -52 50 C-52.34160156 48.73800781 -52.68320313 47.47601563 -53.03515625 46.17578125 C-56.52246413 33.03283511 -58.99507149 19.80914209 -60.125 6.25 C-60.21998779 5.40405273 -60.31497559 4.55810547 -60.4128418 3.68652344 C-60.78905262 -2.09720764 -60.78905262 -2.09720764 -58.56713867 -4.6394043 C-43.45868297 -15.84721211 -15.04321115 -8.47233652 0 0 Z " fill="#FDFDFD" transform="translate(292,39)"/>
<path d="M0 0 C0.56847656 0.22945312 1.13695312 0.45890625 1.72265625 0.6953125 C-1.28092045 5.81251725 -4.8406346 9.07292192 -9.58984375 12.5703125 C-22.01568391 21.81401017 -31.8592468 34.63890317 -36.27734375 49.6953125 C-36.27734375 50.6853125 -36.27734375 51.6753125 -36.27734375 52.6953125 C-31.82234375 52.2003125 -31.82234375 52.2003125 -27.27734375 51.6953125 C-27.27734375 50.7053125 -27.27734375 49.7153125 -27.27734375 48.6953125 C-28.76234375 48.2003125 -28.76234375 48.2003125 -30.27734375 47.6953125 C-30.27734375 47.0353125 -30.27734375 46.3753125 -30.27734375 45.6953125 C-21.13635632 40.24587769 -12.58494305 39.12268294 -1.9375 41.4140625 C4.721448 43.49655822 10.67594121 46.01386516 15.22265625 51.5078125 C16.04920678 55.12397108 15.9305682 58.22804193 14.72265625 61.6953125 C13.06918805 63.99965693 11.29223042 65.99874235 9.31640625 68.03125 C7.63662247 69.62097695 7.63662247 69.62097695 6.72265625 71.6953125 C14.09801469 74.37153431 20.71544511 75.17956122 28.53515625 75.0703125 C30.11466064 75.0539978 30.11466064 75.0539978 31.72607422 75.03735352 C44.43715299 75.07149604 44.43715299 75.07149604 55.7578125 70.11328125 C64.79331629 60.30879841 63.17919821 46.09365345 62.72265625 33.6953125 C62.20419902 25.20116202 61.25343775 16.09855025 56.72265625 8.6953125 C52.70746437 5.18000395 49.27695831 4.45508224 43.96142578 4.53027344 C40.07107136 4.8170651 36.41067519 5.78551304 32.66015625 6.8203125 C31.83451172 7.04404541 31.00886719 7.26777832 30.15820312 7.49829102 C12.84908372 12.34104098 -6.39150362 19.36982185 -16.40234375 35.2578125 C-17.02109375 36.3921875 -17.63984375 37.5265625 -18.27734375 38.6953125 C-19.76234375 38.2003125 -19.76234375 38.2003125 -21.27734375 37.6953125 C-17.25297372 25.8946858 -4.96417492 16.85741607 5.82788086 11.49511719 C13.57761441 7.80925785 21.39258514 4.81976016 29.72265625 2.6953125 C30.56957031 2.47101562 31.41648437 2.24671875 32.2890625 2.015625 C40.05651103 0.19532406 48.88571681 -1.0548704 56.28515625 2.3203125 C65.65085296 11.44586315 66.63772692 23.69350072 66.92578125 36.12890625 C66.94682547 38.46349911 66.96234299 40.79814758 66.97265625 43.1328125 C66.99328125 44.29619141 67.01390625 45.45957031 67.03515625 46.65820312 C67.07814156 56.20631589 65.87750074 64.36190534 60.19921875 72.22265625 C52.67155079 79.73040975 39.59954037 79.98230883 29.53515625 80.0078125 C20.16650588 79.90450006 11.01061247 79.46088733 2.72265625 74.6953125 C-0.15100307 73.7828516 -2.47348891 73.68120935 -5.46484375 73.8828125 C-11.86413885 73.95673175 -17.06616366 71.63683648 -21.83984375 67.4453125 C-22.31421875 66.8678125 -22.78859375 66.2903125 -23.27734375 65.6953125 C-24.26734375 66.6853125 -24.26734375 66.6853125 -25.27734375 67.6953125 C-27.15673828 67.92236328 -27.15673828 67.92236328 -29.41015625 67.890625 C-30.21582031 67.88417969 -31.02148438 67.87773438 -31.8515625 67.87109375 C-32.69332031 67.85433594 -33.53507812 67.83757812 -34.40234375 67.8203125 C-35.25183594 67.81128906 -36.10132812 67.80226563 -36.9765625 67.79296875 C-39.07694259 67.76936897 -41.17717819 67.73349733 -43.27734375 67.6953125 C-43.60734375 66.3753125 -43.93734375 65.0553125 -44.27734375 63.6953125 C-43.61734375 63.6953125 -42.95734375 63.6953125 -42.27734375 63.6953125 C-42.60734375 63.0353125 -42.93734375 62.3753125 -43.27734375 61.6953125 C-44.26734375 62.3553125 -45.25734375 63.0153125 -46.27734375 63.6953125 C-47.40234375 59.9453125 -47.40234375 59.9453125 -46.27734375 57.6953125 C-45.61734375 57.6953125 -44.95734375 57.6953125 -44.27734375 57.6953125 C-43.88546875 56.4784375 -43.49359375 55.2615625 -43.08984375 54.0078125 C-42.49067811 52.23528081 -41.88593062 50.4646316 -41.27734375 48.6953125 C-40.93703125 47.69371094 -40.59671875 46.69210938 -40.24609375 45.66015625 C-37.27122522 37.38881571 -33.52479141 29.77299577 -28.27734375 22.6953125 C-27.61734375 22.6953125 -26.95734375 22.6953125 -26.27734375 22.6953125 C-26.02984375 22.1384375 -25.78234375 21.5815625 -25.52734375 21.0078125 C-23.12735545 16.56783415 -20.77816461 13.87752867 -16.27734375 11.6953125 C-15.55546875 10.9734375 -14.83359375 10.2515625 -14.08984375 9.5078125 C-11.70561753 7.12358628 -9.31686447 4.95738197 -6.71484375 2.8203125 C-5.97105469 2.20414063 -5.22726563 1.58796875 -4.4609375 0.953125 C-2.27734375 -0.3046875 -2.27734375 -0.3046875 0 0 Z " fill="#59311F" transform="translate(161.27734375,30.3046875)"/>
<path d="M0 0 C15.75403071 1.86148373 28.88820962 11.06878713 39 23 C48.89308635 35.83117231 58.54289756 52.32098045 58 69 C40.18638841 68.27291381 22.3759166 61.99870348 10.08984375 48.7109375 C1.39746651 37.43521824 -0.32225068 26.30754756 -0.125 12.5 C-0.11597656 11.29601562 -0.10695313 10.09203125 -0.09765625 8.8515625 C-0.07423775 5.9008321 -0.04143993 2.95052311 0 0 Z " fill="#FDFCFC" transform="translate(309,51)"/>
<path d="M0 0 C0.87084229 0.01135986 1.74168457 0.02271973 2.63891602 0.03442383 C17.71155215 0.47512823 36.99478144 3.84713214 48.171875 14.6015625 C50.64349342 17.69745567 51.56834205 20.70729807 52.6875 24.5 C53.32710014 25.8465266 53.977499 27.18922893 54.6875 28.5 C55.0175 27.18 55.3475 25.86 55.6875 24.5 C55.0275 24.5 54.3675 24.5 53.6875 24.5 C53.6875 23.51 53.6875 22.52 53.6875 21.5 C68.03882949 20.33637869 78.81764119 25.39051141 89.6875 34.5 C104.62078683 47.24860228 117.55628924 68.99014837 120.6875 88.5 C120.75209042 90.26977761 120.77361065 92.04170152 120.75 93.8125 C120.74097656 94.69550781 120.73195313 95.57851562 120.72265625 96.48828125 C120.70525391 97.48408203 120.70525391 97.48408203 120.6875 98.5 C102.8401421 99.63316558 84.34768597 92.89128522 70.6875 81.5 C63.61067048 74.93399797 59.71804837 67.59164512 56.6875 58.5 C56.47996094 59.22445312 56.27242188 59.94890625 56.05859375 60.6953125 C53.92478502 67.39136499 51.90571251 71.94180062 45.6875 75.5 C34.98924426 80.43891868 24.29812084 81.82760695 12.625 81.6875 C11.60083984 81.68685547 10.57667969 81.68621094 9.52148438 81.68554688 C3.50177349 81.65092873 -2.34312147 81.27645402 -8.3125 80.5 C-17.10172765 60.50332985 -21.47946628 37.91750271 -21.875 16.125 C-21.90182861 15.29307129 -21.92865723 14.46114258 -21.95629883 13.60400391 C-21.94140625 11.2890625 -21.94140625 11.2890625 -21.3125 7.5 C-19.21484375 5.7109375 -19.21484375 5.7109375 -16.3125 4.5 C-14.71341797 3.43265625 -14.71341797 3.43265625 -13.08203125 2.34375 C-8.79880588 -0.07805749 -4.83342357 -0.10808066 0 0 Z M-7.9375 4.75 C-8.63101563 4.98203125 -9.32453125 5.2140625 -10.0390625 5.453125 C-13.25813733 6.93544812 -15.65053452 8.0969954 -18.3125 10.5 C-19.01149822 13.6092009 -18.69473497 16.53705661 -18.375 19.6875 C-18.30434326 20.58243164 -18.23368652 21.47736328 -18.16088867 22.39941406 C-16.6727376 39.53975268 -14.25066213 61.19390289 -6.3125 76.5 C-1.55435562 78.71667819 5.00718486 77.72539952 10.14746094 77.74023438 C12.15311647 77.74983541 14.15863167 77.78098046 16.1640625 77.8125 C27.53460477 77.8577109 38.55034085 76.86941731 47.6875 69.5 C52.66921259 64.35758701 51.90055055 57.40593392 51.84375 50.66796875 C51.70767586 45.99042021 51.32783414 41.34404516 50.875 36.6875 C50.80498779 35.91196777 50.73497559 35.13643555 50.6628418 34.33740234 C49.93745515 27.54060902 48.81076479 20.3428351 43.9375 15.25 C35.68019226 9.03556049 24.16681594 7.23241267 14.25 5.1875 C13.42218018 5.01589355 12.59436035 4.84428711 11.74145508 4.66748047 C5.14041038 3.39286014 -1.44181254 2.46312876 -7.9375 4.75 Z M58.6875 25.5 C57.56327669 51.11997714 57.56327669 51.11997714 68.6875 73.5 C69.49767578 74.51320313 69.49767578 74.51320313 70.32421875 75.546875 C81.24304674 87.76838311 98.87153771 93.41368539 114.7734375 94.421875 C115.40507812 94.44765625 116.03671875 94.4734375 116.6875 94.5 C116.0140252 73.28554388 103.78576987 53.77114175 88.8671875 39.375 C80.79096616 32.42771282 69.58731016 25.5 58.6875 25.5 Z " fill="#5C3220" transform="translate(250.3125,25.5)"/>
<path d="M0 0 C5.86318385 3.82901802 10.79240402 9.58627199 12.66796875 16.44140625 C13.24343445 20.55090839 13.47638759 23.48441405 11 27 C6.90970541 29.35661009 2.67165921 29.36644074 -1.9375 29.375 C-2.62779297 29.39949219 -3.31808594 29.42398438 -4.02929688 29.44921875 C-10.43882633 29.48567105 -13.86476601 27.02285325 -18.375 22.75 C-20.6651042 18.87443905 -20.36053073 16.47058101 -20 12 C-19.67 11.01 -19.34 10.02 -19 9 C-18.01 9 -17.02 9 -16 9 C-16 8.0925 -16 7.185 -16 6.25 C-14.88725065 2.63356461 -14.52571431 2.29600111 -11.375 0.5625 C-7.22418375 -1.20159691 -4.38265619 -1.3797251 0 0 Z " fill="#FBFBFA" transform="translate(155,205)"/>
<path d="M0 0 C3.69231296 2.05905232 5.88957054 4.10041216 7.20703125 8.140625 C7.28887616 12.23287072 6.68111576 13.93196406 4.26953125 17.265625 C-1.3082999 21.91585185 -6.84348927 23.01943939 -13.99609375 22.68359375 C-19.2417964 21.88175063 -22.13719346 19.05623366 -25.54296875 15.265625 C-28.47618654 11.24292632 -28.86503928 8.41642094 -28.79296875 3.515625 C-28.78394531 2.71640625 -28.77492187 1.9171875 -28.765625 1.09375 C-28.75402344 0.49046875 -28.74242187 -0.1128125 -28.73046875 -0.734375 C-19.74872195 -5.00326607 -8.9985324 -3.48330287 0 0 Z " fill="#FCFCFB" transform="translate(165.73046875,77.734375)"/>
<path d="M0 0 C4.87052033 0.8148399 7.90409892 3.90155225 10.8046875 7.65625 C14.44316548 13.14321519 15.66092372 18.79639881 15.0546875 25.34375 C13.35114013 29.17673158 11.89855909 30.78560919 8.0546875 32.34375 C1.27486469 33.33535674 -4.30214576 32.24053258 -9.9453125 28.34375 C-12.87613543 25.78531399 -13.79326553 23.7469263 -14.21875 19.8203125 C-14.38470159 15.16090255 -14.4384166 12.19846378 -12.0703125 8.09375 C-7.55429081 5.56477785 -3.89288244 6.37344988 1.0546875 7.34375 C-1.929006 3.91938792 -4.4701509 3.76593506 -8.9453125 3.34375 C-6.65098273 -0.09774465 -3.95998608 -0.17406532 0 0 Z " fill="#FBFAF9" transform="translate(348.9453125,213.65625)"/>
<path d="M0 0 C18.00814835 1.80465453 18.00814835 1.80465453 26.0625 3 C27.76019531 3.24363281 27.76019531 3.24363281 29.4921875 3.4921875 C31.8745387 3.8370713 34.254753 4.19698273 36.6328125 4.5703125 C47.5481394 6.12945207 58.43323273 6.18833447 69.4375 6.1875 C70.23118988 6.18840637 71.02487976 6.18931274 71.84262085 6.19024658 C74.12303863 6.18995185 76.40321633 6.18101515 78.68359375 6.16796875 C79.37660583 6.16676529 80.06961792 6.16556183 80.78363037 6.1643219 C83.79853874 6.13483388 86.11521638 5.96159454 89 5 C88.67 8.63 88.34 12.26 88 16 C85.69 16 83.38 16 81 16 C81 14.68 81 13.36 81 12 C80.37488525 12.07001221 79.74977051 12.14002441 79.10571289 12.2121582 C71.20794082 13.02117733 63.3730568 13.19254261 55.4375 13.1875 C54.44929764 13.18759064 54.44929764 13.18759064 53.44113159 13.18768311 C42.80441221 13.173833 32.51314048 12.53032753 22 11 C20.62153632 10.82716211 19.24261929 10.65790302 17.86328125 10.4921875 C11.45234951 9.71014038 5.21751635 8.77643324 -1 7 C-0.67 4.69 -0.34 2.38 0 0 Z " fill="#F4F1F0" transform="translate(208,216)"/>
<path d="M0 0 C7.28275125 4.60894115 12.21768506 10.71946164 14.57421875 19.0234375 C15.86720846 25.02575672 14.9217937 29.66017014 12 35 C7.39371232 39.37597329 3.63087634 40.32316642 -2.53125 40.203125 C-9.09206778 39.66331088 -13.5484654 37.94211188 -18 33 C-22.50335191 27.49590322 -22.72827714 21.7607915 -22.55078125 14.82421875 C-21.69376098 8.87370214 -18.67868149 5.57731303 -14 2 C-9.48380423 -0.71328758 -5.12020516 -1.19227635 0 0 Z M-11.74609375 5.51953125 C-12.15988281 6.00808594 -12.57367188 6.49664062 -13 7 C-12.36191406 7.12117187 -11.72382813 7.24234375 -11.06640625 7.3671875 C-9.82697266 7.61855469 -9.82697266 7.61855469 -8.5625 7.875 C-7.73878906 8.03742188 -6.91507812 8.19984375 -6.06640625 8.3671875 C-5.38449219 8.57601562 -4.70257813 8.78484375 -4 9 C-3.67 9.66 -3.34 10.32 -3 11 C-3.66386719 10.86980469 -4.32773437 10.73960937 -5.01171875 10.60546875 C-10.78662861 9.69399 -10.78662861 9.69399 -16.125 11.75 C-18.86088023 16.4921924 -18.72607707 20.65123227 -18 26 C-16.22253928 30.64114744 -13.22962735 32.53271738 -9 35 C-4.65409627 36.44863458 -0.54177058 36.52188047 4 36 C8.76437814 33.60266959 8.76437814 33.60266959 11 29 C11.60479628 21.44004651 9.88631743 14.93656629 5.0625 9.0625 C2.44840313 6.11379873 -0.07391932 4.28466068 -4.03515625 3.69921875 C-8.23267468 3.54796528 -8.23267468 3.54796528 -11.74609375 5.51953125 Z " fill="#5D3321" transform="translate(353,210)"/>
<path d="M0 0 C8.45668853 8.23985036 10.29943245 19.21915286 10.4921875 30.60546875 C10.4990436 33.52959352 10.48202406 36.45125354 10.4375 39.375 C10.1075 39.375 9.7775 39.375 9.4375 39.375 C9.1075 41.685 8.7775 43.995 8.4375 46.375 C8.1075 46.375 7.7775 46.375 7.4375 46.375 C7.3873877 45.76615967 7.33727539 45.15731934 7.28564453 44.5300293 C6.74875021 23.97557 6.74875021 23.97557 -0.5625 5.375 C-5.03798757 2.12009995 -9.20377549 1.97840511 -14.5625 2.375 C-17.63735409 2.90360854 -20.61871759 3.67054161 -23.625 4.5 C-24.45064453 4.72373291 -25.27628906 4.94746582 -26.12695312 5.17797852 C-43.43607253 10.02072848 -62.67665987 17.04950935 -72.6875 32.9375 C-73.30625 34.071875 -73.925 35.20625 -74.5625 36.375 C-75.5525 36.045 -76.5425 35.715 -77.5625 35.375 C-73.53812997 23.5743733 -61.24933117 14.53710357 -50.45727539 9.17480469 C-42.70754184 5.48894535 -34.89257111 2.49944766 -26.5625 0.375 C-25.71558594 0.15070312 -24.86867187 -0.07359375 -23.99609375 -0.3046875 C-16.22864522 -2.12498844 -7.39943944 -3.3751829 0 0 Z " fill="#5F3623" transform="translate(217.5625,32.625)"/>
<path d="M0 0 C3.72664345 1.06388679 5.94134939 1.73847614 8.33203125 4.87109375 C8.72390625 5.73734375 9.11578125 6.60359375 9.51953125 7.49609375 C10.17953125 8.30046875 10.83953125 9.10484375 11.51953125 9.93359375 C15.84136549 15.47094387 17.15320127 19.89687979 16.92578125 26.87109375 C16.24987023 31.23851877 14.93171142 32.65261027 11.51953125 35.49609375 C5.32214872 39.02590728 -1.20885517 39.58176861 -8.0625 37.83984375 C-14.78664243 35.5010116 -19.27321195 31.91060735 -22.48046875 25.49609375 C-23.7726885 17.30224578 -21.67987537 11.97376262 -17.40234375 5.02734375 C-12.47740175 -1.45916523 -7.61048239 -1.5460665 0 0 Z M-14.48046875 7.49609375 C-15.6152581 10.61743119 -15.6152581 10.61743119 -15.48046875 13.49609375 C-16.47046875 13.49609375 -17.46046875 13.49609375 -18.48046875 13.49609375 C-19.73353089 17.25528017 -20.24228948 20.60867211 -19.48046875 24.49609375 C-17.05228303 28.56152522 -13.99278796 31.88180579 -9.48046875 33.49609375 C-6.7902779 33.6884523 -4.2289242 33.77547521 -1.54296875 33.74609375 C-0.83978516 33.75382812 -0.13660156 33.7615625 0.58789062 33.76953125 C4.63975253 33.75434151 7.98265435 33.55438675 11.51953125 31.49609375 C13.9327394 28.03523536 13.87780301 25.13113768 13.3203125 21.07421875 C11.36868371 14.79092606 6.63576409 8.70352256 1.33203125 4.80859375 C-4.46850527 2.10167671 -9.49796813 3.65444607 -14.48046875 7.49609375 Z " fill="#5B311E" transform="translate(154.48046875,200.50390625)"/>
<path d="M0 0 C1.06508789 0.1743457 2.13017578 0.34869141 3.22753906 0.52832031 C4.71979004 0.7792041 4.71979004 0.7792041 6.2421875 1.03515625 C7.58192627 1.25957397 7.58192627 1.25957397 8.94873047 1.48852539 C11.125 1.9375 11.125 1.9375 13.125 2.9375 C19.44223192 4.03396358 25.79610728 4.06445935 32.1875 4 C33.05310547 3.99548828 33.91871094 3.99097656 34.81054688 3.98632812 C36.91539539 3.97469913 39.02020758 3.95677073 41.125 3.9375 C40.795 5.2575 40.465 6.5775 40.125 7.9375 C30.37018039 8.04093008 20.73533668 7.78710542 11 7.09765625 C9.72825928 7.01124374 8.45651855 6.92483124 7.14624023 6.83580017 C4.4874296 6.65409312 1.82883913 6.47052166 -0.82958984 6.28344727 C-4.21915056 6.04503466 -7.60913859 5.81350807 -10.99932861 5.5842371 C-14.27058608 5.36244303 -17.54153618 5.13623374 -20.8125 4.91015625 C-22.01986816 4.82782242 -23.22723633 4.74548859 -24.47119141 4.66065979 C-40.26805425 3.54444575 -40.26805425 3.54444575 -42.875 0.9375 C-42.875 -0.3825 -42.875 -1.7025 -42.875 -3.0625 C-32.12564071 -8.43717964 -11.46917913 -1.88259307 0 0 Z " fill="#F4F2F1" transform="translate(58.875,196.0625)"/>
<path d="M0 0 C0.79277344 0.1340625 1.58554688 0.268125 2.40234375 0.40625 C6.78537383 1.12961653 11.17201356 1.8235101 15.5625 2.5 C16.38041016 2.63019531 17.19832031 2.76039063 18.04101562 2.89453125 C32.12537744 5.05130127 46.10228434 5.12782582 60.3125 5.0625 C62.22851445 5.05747279 64.14453018 5.05291206 66.06054688 5.04882812 C70.70706353 5.03792424 75.35351721 5.02072757 80 5 C80 6.32 80 7.64 80 9 C80.99 9.33 81.98 9.66 83 10 C78.24792523 11.21594189 73.61491113 11.14433619 68.74609375 11.1328125 C67.40104515 11.13424759 67.40104515 11.13424759 66.02882385 11.13571167 C64.13176402 11.13639107 62.23470183 11.13455353 60.33764648 11.13037109 C57.47178744 11.1250635 54.60608828 11.13030137 51.74023438 11.13671875 C31.22702718 11.14521274 31.22702718 11.14521274 24 10 C23.67 9.67 23.34 9.34 23 9 C21.12855409 8.81403613 19.25219696 8.6766224 17.375 8.5625 C11.03888975 8.08089542 5.61616734 7.14505371 0 4 C0 2.68 0 1.36 0 0 Z " fill="#3E1D0F" transform="translate(209,223)"/>
<path d="M0 0 C9.57 0 19.14 0 29 0 C29 7 29 7 27.125 9.375 C23.80065316 11.91714759 21.94714264 12.12788188 17.80859375 12.1328125 C16.78185547 12.13410156 15.75511719 12.13539063 14.69726562 12.13671875 C13.62154297 12.13285156 12.54582031 12.12898437 11.4375 12.125 C10.35791016 12.12886719 9.27832031 12.13273438 8.16601562 12.13671875 C6.6278418 12.13478516 6.6278418 12.13478516 5.05859375 12.1328125 C4.11298584 12.13168457 3.16737793 12.13055664 2.19311523 12.12939453 C0 12 0 12 -1 11 C-1.15031917 7.01654197 -0.97229218 3.88916872 0 0 Z " fill="#643C2A" transform="translate(199,124)"/>
<path d="M0 0 C2.97 0.495 2.97 0.495 6 1 C6.8094902 6.01361673 7.21104933 10.91693759 7.25 16 C7.270625 16.67289063 7.29125 17.34578125 7.3125 18.0390625 C7.35218094 23.17774477 6.30790688 26.51862742 4 31 C3.34 31.66 2.68 32.32 2 33 C1.01 33 0.02 33 -1 33 C-1 32.34 -1 31.68 -1 31 C-1.99 31 -2.98 31 -4 31 C-7.27926877 21.16219369 -4.43053105 9.06244989 0 0 Z " fill="#F4F2F1" transform="translate(13,147)"/>
<path d="M0 0 C5.94 0 11.88 0 18 0 C19.53266582 3.06533164 19.10276471 6.26754272 19.0625 9.625 C19.05798828 10.33140625 19.05347656 11.0378125 19.04882812 11.765625 C19.03703875 13.51045275 19.01910324 15.255237 19 17 C12.17716964 17.32489668 7.38479413 16.43230253 1 14 C0.67 9.38 0.34 4.76 0 0 Z " fill="#FAF9F8" transform="translate(413,206)"/>
<path d="M0 0 C0.70157227 0.05607422 1.40314453 0.11214844 2.12597656 0.16992188 C6.13915358 0.50043927 10.14508225 0.90589659 14.15234375 1.30078125 C15.91397328 1.47227315 17.67569494 1.64282092 19.4375 1.8125 C20.33525146 1.89959229 21.23300293 1.98668457 22.15795898 2.07641602 C34.47041895 3.20382966 46.83264851 3.47843829 59.1875 3.8125 C59.1875 5.1325 59.1875 6.4525 59.1875 7.8125 C42.19013783 8.10478268 25.29442894 8.30036691 8.375 6.4375 C7.22741211 6.31141357 6.07982422 6.18532715 4.89746094 6.05541992 C-0.22419083 5.43476617 -4.98901071 4.74863008 -9.8125 2.8125 C-7.08061817 -1.03200279 -4.42940813 -0.38774427 0 0 Z " fill="#5A301D" transform="translate(234.8125,215.1875)"/>
<path d="M0 0 C8.93001084 -0.44159394 17.42297841 0.33268087 26 3 C27 5 27 5 27 13 C18.75 13 10.5 13 2 13 C3 7 3 7 4 5 C1.525 4.01 1.525 4.01 -1 3 C-0.67 2.01 -0.34 1.02 0 0 Z " fill="#643C2A" transform="translate(323,128)"/>
<path d="M0 0 C0.66 0 1.32 0 2 0 C1.58222334 2.50665994 1.19171874 4.63698262 -0.0009613 6.89530945 C-3.45206973 14.16581391 -2.1761992 24.34334776 -2.24609375 32.19921875 C-2.27900542 34.73242568 -2.31221748 37.26562872 -2.34570312 39.79882812 C-2.39321089 43.75526503 -2.43773879 47.71168324 -2.47680664 51.66821289 C-2.51655144 55.51203447 -2.56805426 59.35556082 -2.62109375 63.19921875 C-2.6295079 64.37852463 -2.63792206 65.55783051 -2.64659119 66.77287292 C-2.73337294 72.55264249 -3.02813229 77.54691549 -5 83 C-5.99 82.67 -6.98 82.34 -8 82 C-7.9302597 81.44140793 -7.86051941 80.88281586 -7.78866577 80.30729675 C-6.94143306 72.84114645 -6.83254612 65.43414222 -6.7890625 57.92578125 C-6.77606343 56.5891999 -6.76224357 55.2526263 -6.74765015 53.9160614 C-6.68666773 48.29103232 -6.6319327 42.66603898 -6.59863281 37.04077148 C-6.57760992 33.57959529 -6.54227049 30.11880974 -6.49787521 26.65785789 C-6.47701274 24.71765306 -6.47168762 22.77730096 -6.46670532 20.83699036 C-6.35358753 12.72204371 -5.73034276 6.22863344 0 0 Z " fill="#5B311E" transform="translate(255,122)"/>
<path d="M0 0 C0.82276843 5.3479948 -0.95182018 8.47518289 -3.96875 12.6875 C-9.99620044 19.5495205 -17.24906478 23.70467273 -26 26 C-24.81508821 16.00783344 -13.86090022 8.95636915 -6.50390625 2.93359375 C-2.70505051 0 -2.70505051 0 0 0 Z " fill="#F6F4F3" transform="translate(49,108)"/>
<path d="M0 0 C24.05455255 1.15136081 48.02046736 2.77484207 72 5 C72 5.66 72 6.32 72 7 C64.74474227 6.90664105 57.48978437 6.79921584 50.23486328 6.68261719 C47.77364667 6.64464836 45.3123806 6.60974355 42.85107422 6.578125 C9.43069503 6.14356501 9.43069503 6.14356501 0 3 C0 2.01 0 1.02 0 0 Z " fill="#EFEBE9" transform="translate(26,203)"/>
<path d="M0 0 C-0.33 0.99 -0.66 1.98 -1 3 C-1.7425 3.350625 -2.485 3.70125 -3.25 4.0625 C-10.09869393 8.88771618 -12.53004123 19.09897163 -14 27 C-14.85307946 33.31384121 -15.4410646 39.65443933 -16 46 C-16.99 45.67 -17.98 45.34 -19 45 C-19.50877762 31.20647332 -18.53782107 15.04538528 -9.26171875 3.9140625 C-5.87958995 0.82886578 -4.77028378 0 0 0 Z " fill="#633B29" transform="translate(134,118)"/>
<path d="M0 0 C0 1.32 0 2.64 0 4 C2.475 4.495 2.475 4.495 5 5 C5 5.33 5 5.66 5 6 C-4.28582994 6.44218238 -12.92981571 4.76773893 -22 3 C-22.33 2.01 -22.66 1.02 -23 0 C-15.1418412 -4.33000587 -8.23193768 -2.09014043 0 0 Z " fill="#5C3320" transform="translate(423,234)"/>
<path d="M0 0 C3.06277033 0.47744902 6.12516534 0.95726517 9.1875 1.4375 C10.48397461 1.63956055 10.48397461 1.63956055 11.80664062 1.84570312 C15.88931675 2.48704305 19.95669077 3.13776221 24 4 C24 4.99 24 5.98 24 7 C22.41058594 7.05607422 22.41058594 7.05607422 20.7890625 7.11328125 C19.40100576 7.17893258 18.01298651 7.24538021 16.625 7.3125 C15.92632812 7.33505859 15.22765625 7.35761719 14.5078125 7.38085938 C12.22711059 7.46984296 12.22711059 7.46984296 9 8 C8.01 9.485 8.01 9.485 7 11 C5.68 11 4.36 11 3 11 C3.875 5.25 3.875 5.25 5 3 C2.525 2.01 2.525 2.01 0 1 C0 0.67 0 0.34 0 0 Z " fill="#6C4736" transform="translate(322,130)"/>
<path d="M0 0 C7.26 0.33 14.52 0.66 22 1 C20 5 20 5 18 6 C16.62451844 6.08308638 15.24514204 6.10736016 13.8671875 6.09765625 C13.06152344 6.09443359 12.25585938 6.09121094 11.42578125 6.08789062 C10.58402344 6.07951172 9.74226562 6.07113281 8.875 6.0625 C8.02550781 6.05798828 7.17601562 6.05347656 6.30078125 6.04882812 C4.20049091 6.03702874 2.1002367 6.01909306 0 6 C0 4.02 0 2.04 0 0 Z " fill="#F4F2F0" transform="translate(202,127)"/>
<path d="M0 0 C0.66 0.99 1.32 1.98 2 3 C5.75475079 7.97760077 5.75475079 7.97760077 11 11 C13.40837755 11.28878735 15.82810468 11.49045026 18.25 11.625 C19.51328125 11.69976562 20.7765625 11.77453125 22.078125 11.8515625 C23.04234375 11.90054688 24.0065625 11.94953125 25 12 C25 12.33 25 12.66 25 13 C22.69 13.66 20.38 14.32 18 15 C20.97 15.495 20.97 15.495 24 16 C24 16.33 24 16.66 24 17 C16.2209887 17.5018717 9.15738821 16.62719497 3.0703125 11.31640625 C0.46725176 8.42065686 -1.53628822 5.97002369 -2 2 C-1.34 1.34 -0.68 0.68 0 0 Z " fill="#603725" transform="translate(134,222)"/>
<path d="M0 0 C7.59 0.33 15.18 0.66 23 1 C22.67 1.66 22.34 2.32 22 3 C15.73 3 9.46 3 3 3 C3 4.98 3 6.96 3 9 C5.64 9 8.28 9 11 9 C10.67 9.66 10.34 10.32 10 11 C6.37 11 2.74 11 -1 11 C-1.07622858 7.03611362 -0.9681648 3.8726592 0 0 Z " fill="#572C18" transform="translate(199,124)"/>
<path d="M0 0 C0.66 0.99 1.32 1.98 2 3 C0.87616008 4.93817313 -0.24911321 6.87551518 -1.375 8.8125 C-2.00148438 9.89144531 -2.62796875 10.97039062 -3.2734375 12.08203125 C-6.62859248 17.75239499 -6.62859248 17.75239499 -10 20 C-10.33 20.99 -10.66 21.98 -11 23 C-11.66 23 -12.32 23 -13 23 C-11.44840631 13.70694415 -6.44685461 6.65122175 0 0 Z " fill="#A1897E" transform="translate(116,182)"/>
<path d="M0 0 C0.99 0.33 1.98 0.66 3 1 C7.01938078 9.33649346 6.28005616 17.96559583 6 27 C5.01 27 4.02 27 3 27 C2.95101563 26.16597656 2.90203125 25.33195312 2.8515625 24.47265625 C2.45149918 18.4510135 1.86637986 12.73616123 0.41015625 6.87890625 C-0.09647353 4.55805933 -0.15266004 2.36623064 0 0 Z " fill="#5D3422" transform="translate(375,145)"/>
<path d="M0 0 C4.04225289 3.66310261 3.59363342 7.15203782 3.87109375 12.4296875 C3.91363281 13.60789063 3.95617187 14.78609375 4 16 C4.05285156 17.11632812 4.10570312 18.23265625 4.16015625 19.3828125 C4.38532041 27.35166593 4.38532041 27.35166593 2.609375 30.33984375 C2.07828125 30.88769531 1.5471875 31.43554688 1 32 C0.34 32 -0.32 32 -1 32 C-0.83628906 30.9378125 -0.67257813 29.875625 -0.50390625 28.78125 C0.2151081 23.0291352 0.10749889 17.28754902 0.0625 11.5 C0.05798828 10.39140625 0.05347656 9.2828125 0.04882812 8.140625 C0.03713158 5.42702601 0.02074086 2.71354239 0 0 Z " fill="#EAE5E3" transform="translate(22,148)"/>
<path d="M0 0 C0.33 2.64 0.66 5.28 1 8 C-2.96 8 -6.92 8 -11 8 C-11 6.35 -11 4.7 -11 3 C-7.44035648 -0.03616654 -4.57588204 -0.31924758 0 0 Z " fill="#F3F0EE" transform="translate(133,86)"/>
<path d="M0 0 C2.95097333 3.53855651 5.41966375 7.15147793 7.75 11.125 C8.36359375 12.15882813 8.9771875 13.19265625 9.609375 14.2578125 C11 17 11 17 11 20 C9.25 19.875 9.25 19.875 7 19 C2.49825804 13.54334307 0 7.0790896 0 0 Z " fill="#EFECEA" transform="translate(413,160)"/>
<path d="M0 0 C9.56700056 0.61722584 18.69247957 2.8201341 28 5 C28 5.33 28 5.66 28 6 C18.71417006 6.44218238 10.07018429 4.76773893 1 3 C0.67 2.01 0.34 1.02 0 0 Z " fill="#DAD0CC" transform="translate(400,234)"/>
<path d="M0 0 C1.32 0.33 2.64 0.66 4 1 C4 2.32 4 3.64 4 5 C3.39414063 5.09152344 2.78828125 5.18304688 2.1640625 5.27734375 C-0.53674184 6.1792369 -1.13435526 7.18227695 -2.625 9.5625 C-3.8515625 11.50390625 -3.8515625 11.50390625 -5 13 C-5.66 13 -6.32 13 -7 13 C-6.70876501 7.02968261 -3.97185616 4.105466 0 0 Z " fill="#5C3320" transform="translate(191,187)"/>
<path d="M0 0 C-2 3 -2 3 -5.2578125 3.94921875 C-6.53398437 4.19285156 -7.81015625 4.43648437 -9.125 4.6875 C-11.04699219 5.06455078 -11.04699219 5.06455078 -13.0078125 5.44921875 C-13.99523437 5.63097656 -14.98265625 5.81273437 -16 6 C-16.66 4.68 -17.32 3.36 -18 2 C-15.75256955 1.46818825 -13.50192898 0.94992874 -11.25 0.4375 C-9.99703125 0.14746094 -8.7440625 -0.14257812 -7.453125 -0.44140625 C-4.40526252 -0.93444283 -2.82358172 -1.07666879 0 0 Z " fill="#633C2A" transform="translate(205,32)"/>
<path d="M0 0 C0.33 0.66 0.66 1.32 1 2 C-1.54782974 4.97246802 -4.45340883 6.41535288 -8 8 C-8.66 8 -9.32 8 -10 8 C-10.33 8.99 -10.66 9.98 -11 11 C-11.99 10.67 -12.98 10.34 -14 10 C-12.614012 6.64933828 -11.2243823 5.16628149 -8.125 3.3125 C-7.44695312 2.89613281 -6.76890625 2.47976562 -6.0703125 2.05078125 C-4.04394726 1.02230531 -2.21918685 0.45279373 0 0 Z " fill="#633B29" transform="translate(394,225)"/>
<path d="M0 0 C4.4635338 0.65320007 8.73936301 1.49624577 13 3 C13.33 3.99 13.66 4.98 14 6 C9.71 5.67 5.42 5.34 1 5 C0.67 3.35 0.34 1.7 0 0 Z " fill="#4F2715" transform="translate(209,223)"/>
<path d="M0 0 C5.63281599 -0.2396943 10.54538831 0.61470179 16 2 C16 2.99 16 3.98 16 5 C10.72 4.67 5.44 4.34 0 4 C0 2.68 0 1.36 0 0 Z " fill="#F0EDEB" transform="translate(330,132)"/>
<path d="M0 0 C0.06058594 0.65226563 0.12117187 1.30453125 0.18359375 1.9765625 C0.63519991 6.68716217 1.14195039 11.34201638 2 16 C-1 15 -1 15 -2.6875 11.8125 C-3.99771183 8.44338388 -4.50706145 5.6339404 -4 2 C-1 0 -1 0 0 0 Z " fill="#623A28" transform="translate(151,167)"/>
<path d="M0 0 C1.3809273 3.72673328 0.59902051 6.02657117 -0.75 9.6875 C-1.09546875 10.66074219 -1.4409375 11.63398438 -1.796875 12.63671875 C-3 15 -3 15 -6 16 C-5.46060633 9.74303344 -4.63698228 4.63698228 0 0 Z " fill="#5D3421" transform="translate(173,170)"/>
<path d="M0 0 C1.93719378 -0.05406122 3.87481921 -0.09282025 5.8125 -0.125 C6.89144531 -0.14820312 7.97039062 -0.17140625 9.08203125 -0.1953125 C12 0 12 0 15 2 C14.34 2 13.68 2 13 2 C13 2.66 13 3.32 13 4 C9.04 3.67 5.08 3.34 1 3 C0.67 2.01 0.34 1.02 0 0 Z " fill="#653E2D" transform="translate(323,128)"/>
<path d="M0 0 C-0.6796875 1.953125 -0.6796875 1.953125 -2 4 C-4.3828125 4.609375 -4.3828125 4.609375 -7.125 4.75 C-8.03507813 4.80671875 -8.94515625 4.8634375 -9.8828125 4.921875 C-10.58148438 4.94765625 -11.28015625 4.9734375 -12 5 C-12 3.68 -12 2.36 -12 1 C-7.93631321 0.22596442 -4.13574827 -0.0984702 0 0 Z " fill="#653E2C" transform="translate(201,215)"/>
<path d="M0 0 C0.99 0.33 1.98 0.66 3 1 C3.94921875 2.92578125 3.94921875 2.92578125 4.6875 5.3125 C4.93886719 6.09238281 5.19023437 6.87226563 5.44921875 7.67578125 C6 10 6 10 6 14 C3 13 3 13 2.05078125 11.328125 C0.66829057 7.43666975 -0.39357798 4.19816517 0 0 Z " fill="#613926" transform="translate(334,192)"/>
<path d="M0 0 C4.29 0 8.58 0 13 0 C13 0.99 13 1.98 13 3 C8.38 3 3.76 3 -1 3 C-0.67 2.01 -0.34 1.02 0 0 Z " fill="#5B311E" transform="translate(331,137)"/>
<path d="M0 0 C1.65 0 3.3 0 5 0 C4.51171875 6.0546875 4.51171875 6.0546875 4 8 C3.01 8.66 2.02 9.32 1 10 C0.67 6.7 0.34 3.4 0 0 Z " fill="#EBE6E4" transform="translate(17,202)"/>
<path d="M0 0 C1.86562642 1.57297914 2.90238443 2.45510217 3.34057617 4.90112305 C3.32486572 5.59761963 3.30915527 6.29411621 3.29296875 7.01171875 C3.28330078 7.76904297 3.27363281 8.52636719 3.26367188 9.30664062 C3.23853516 10.09232422 3.21339844 10.87800781 3.1875 11.6875 C3.17396484 12.48478516 3.16042969 13.28207031 3.14648438 14.10351562 C3.11117089 16.06929967 3.05736447 18.03473582 3 20 C2.67 20 2.34 20 2 20 C1.66254646 17.60468244 1.3299171 15.20885732 1 12.8125 C0.90460937 12.13896484 0.80921875 11.46542969 0.7109375 10.77148438 C0.21675387 7.15335423 -0.11346131 3.65203599 0 0 Z " fill="#F4F1EF" transform="translate(22,148)"/>
<path d="M0 0 C-0.33 0.99 -0.66 1.98 -1 3 C-3.97 3 -6.94 3 -10 3 C-10.33 2.01 -10.66 1.02 -11 0 C-3.375 -1.125 -3.375 -1.125 0 0 Z " fill="#542915" transform="translate(360,246)"/>
<path d="M0 0 C-0.33 0.99 -0.66 1.98 -1 3 C-4.63 3 -8.26 3 -12 3 C-8.15832033 -0.84167967 -5.20723736 -1.73574579 0 0 Z " fill="#532713" transform="translate(162,235)"/>
<path d="M0 0 C0.91007813 0.00902344 1.82015625 0.01804688 2.7578125 0.02734375 C3.45648438 0.03894531 4.15515625 0.05054688 4.875 0.0625 C4.875 0.3925 4.875 0.7225 4.875 1.0625 C2.565 1.7225 0.255 2.3825 -2.125 3.0625 C0.845 3.5575 0.845 3.5575 3.875 4.0625 C3.875 4.3925 3.875 4.7225 3.875 5.0625 C0.905 5.0625 -2.065 5.0625 -5.125 5.0625 C-5.125 4.4025 -5.125 3.7425 -5.125 3.0625 C-5.785 3.0625 -6.445 3.0625 -7.125 3.0625 C-7.125 2.4025 -7.125 1.7425 -7.125 1.0625 C-4.60024538 -0.19987731 -2.81299534 -0.03606404 0 0 Z " fill="#7F5F50" transform="translate(154.125,233.9375)"/>
<path d="M0 0 C-1 3 -1 3 -3.06640625 4.16796875 C-3.89011719 4.50441406 -4.71382812 4.84085937 -5.5625 5.1875 C-6.38878906 5.53167969 -7.21507813 5.87585938 -8.06640625 6.23046875 C-8.70449219 6.48441406 -9.34257813 6.73835938 -10 7 C-7.64382272 1.95402741 -5.78512269 0 0 0 Z " fill="#5A301D" transform="translate(134,118)"/>
<path d="M0 0 C2.875 -0.125 2.875 -0.125 6 0 C6.66 0.66 7.32 1.32 8 2 C7.67 2.66 7.34 3.32 7 4 C4.03 3.505 4.03 3.505 1 3 C0.67 2.01 0.34 1.02 0 0 Z " fill="#603826" transform="translate(372,261)"/>
<path d="M0 0 C-0.33 0.99 -0.66 1.98 -1 3 C-2.98 3 -4.96 3 -7 3 C-7.33 2.01 -7.66 1.02 -8 0 C-5.13822943 -1.43088528 -3.06624227 -0.59991697 0 0 Z " fill="#5B321F" transform="translate(344,130)"/>
<path d="M0 0 C4.95 0.99 4.95 0.99 10 2 C10.33 2.99 10.66 3.98 11 5 C9.35 5 7.7 5 6 5 C6 4.34 6 3.68 6 3 C3.03 2.505 3.03 2.505 0 2 C0 1.34 0 0.68 0 0 Z " fill="#653D2B" transform="translate(339,216)"/>
<path d="M0 0 C-0.33 0.99 -0.66 1.98 -1 3 C-2.98 3.33 -4.96 3.66 -7 4 C-7 3.34 -7 2.68 -7 2 C-7.66 1.67 -8.32 1.34 -9 1 C-5.92677456 0.08941469 -3.19902639 -0.08886184 0 0 Z " fill="#613927" transform="translate(343,185)"/>
<path d="M0 0 C0.66 0.99 1.32 1.98 2 3 C0.68 5.31 -0.64 7.62 -2 10 C-2.66 8.68 -3.32 7.36 -4 6 C-2.68 4.02 -1.36 2.04 0 0 Z " fill="#67402E" transform="translate(116,182)"/>
<path d="M0 0 C2.64 0.33 5.28 0.66 8 1 C8 1.66 8 2.32 8 3 C5.69 3 3.38 3 1 3 C0.67 2.01 0.34 1.02 0 0 Z " fill="#EAE4E2" transform="translate(400,234)"/>
<path d="M0 0 C0.33 0.66 0.66 1.32 1 2 C1.66 2 2.32 2 3 2 C2.67 4.97 2.34 7.94 2 11 C1.67 11 1.34 11 1 11 C0.63890458 9.35567294 0.28629924 7.7094792 -0.0625 6.0625 C-0.25972656 5.14597656 -0.45695312 4.22945312 -0.66015625 3.28515625 C-0.77230469 2.53105469 -0.88445312 1.77695312 -1 1 C-0.67 0.67 -0.34 0.34 0 0 Z " fill="#D3C8C3" transform="translate(303,48)"/>
<path d="M0 0 C0.763125 0.061875 1.52625 0.12375 2.3125 0.1875 C2.6425 1.1775 2.9725 2.1675 3.3125 3.1875 C0.3425 3.1875 -2.6275 3.1875 -5.6875 3.1875 C-2.6875 0.1875 -2.6875 0.1875 0 0 Z " fill="#4C1F0B" transform="translate(207.6875,30.8125)"/>
<path d="M0 0 C0.66 0.33 1.32 0.66 2 1 C1.67 2.32 1.34 3.64 1 5 C-0.65 4.67 -2.3 4.34 -4 4 C-3.67 3.01 -3.34 2.02 -3 1 C-2.01 0.67 -1.02 0.34 0 0 Z " fill="#653E2C" transform="translate(28,132)"/>
</svg>
